<?xml version="1.0" encoding="UTF-8" standalone="no"?><svg xmlns="http://www.w3.org/2000/svg" xmlns:xlink="http://www.w3.org/1999/xlink" contentScriptType="application/ecmascript" contentStyleType="text/css" height="203px" preserveAspectRatio="none" style="width:181px;height:203px;" version="1.1" viewBox="0 0 181 203" width="181px" zoomAndPan="magnify"><defs><filter height="300%" id="f10n0hhqdg7hwa" width="300%" x="-1" y="-1"><feGaussianBlur result="blurOut" stdDeviation="2.0"/><feColorMatrix in="blurOut" result="blurOut2" type="matrix" values="0 0 0 0 0 0 0 0 0 0 0 0 0 0 0 0 0 0 .4 0"/><feOffset dx="4.0" dy="4.0" in="blurOut2" result="blurOut3"/><feBlend in="SourceGraphic" in2="blurOut3" mode="normal"/></filter></defs><g><!--MD5=[889b3b297a81a9c622ac07d0d370c7ea]
class ExtractSuperclassBase--><rect codeLine="1" fill="#FEFECE" filter="url(#f10n0hhqdg7hwa)" height="73.9102" id="ExtractSuperclassBase" style="stroke:#A80036;stroke-width:1.5;" width="160" x="7" y="7"/><ellipse cx="22" cy="23" fill="#ADD1B2" rx="11" ry="11" style="stroke:#A80036;stroke-width:1.0;"/><path d="M24.4731,29.1431 Q23.8921,29.4419 23.2529,29.5913 Q22.6138,29.7407 21.9082,29.7407 Q19.4014,29.7407 18.0815,28.0889 Q16.7617,26.437 16.7617,23.3159 Q16.7617,20.1865 18.0815,18.5347 Q19.4014,16.8828 21.9082,16.8828 Q22.6138,16.8828 23.2612,17.0322 Q23.9087,17.1816 24.4731,17.4805 L24.4731,20.2031 Q23.8423,19.6221 23.2488,19.3523 Q22.6553,19.0825 22.0244,19.0825 Q20.6797,19.0825 19.9949,20.1492 Q19.3101,21.2158 19.3101,23.3159 Q19.3101,25.4077 19.9949,26.4744 Q20.6797,27.541 22.0244,27.541 Q22.6553,27.541 23.2488,27.2712 Q23.8423,27.0015 24.4731,26.4204 Z " fill="#000000"/><text fill="#000000" font-family="sans-serif" font-size="12" lengthAdjust="spacing" textLength="128" x="36" y="27.5352">ExtractSuperclassBase</text><line style="stroke:#A80036;stroke-width:1.5;" x1="8" x2="166" y1="39" y2="39"/><line style="stroke:#A80036;stroke-width:1.5;" x1="8" x2="166" y1="47" y2="47"/><ellipse cx="18" cy="58" fill="#84BE84" rx="3" ry="3" style="stroke:#038048;stroke-width:1.0;"/><text fill="#000000" font-family="sans-serif" font-size="11" lengthAdjust="spacing" textLength="79" x="27" y="61.6348">method1() : int</text><ellipse cx="18" cy="70.9551" fill="#84BE84" rx="3" ry="3" style="stroke:#038048;stroke-width:1.0;"/><text fill="#000000" font-family="sans-serif" font-size="11" lengthAdjust="spacing" textLength="79" x="27" y="74.5898">method2() : int</text><!--MD5=[983f84185dd67fea92690adb77d84691]
class ExtractSuperclass--><rect codeLine="5" fill="#FEFECE" filter="url(#f10n0hhqdg7hwa)" height="48" id="ExtractSuperclass" style="stroke:#A80036;stroke-width:1.5;" width="133" x="20.5" y="141"/><ellipse cx="35.5" cy="157" fill="#ADD1B2" rx="11" ry="11" style="stroke:#A80036;stroke-width:1.0;"/><path d="M37.9731,163.1431 Q37.3921,163.4419 36.7529,163.5913 Q36.1138,163.7407 35.4082,163.7407 Q32.9014,163.7407 31.5815,162.0889 Q30.2617,160.437 30.2617,157.3159 Q30.2617,154.1865 31.5815,152.5347 Q32.9014,150.8828 35.4082,150.8828 Q36.1138,150.8828 36.7612,151.0322 Q37.4087,151.1816 37.9731,151.4805 L37.9731,154.2031 Q37.3423,153.6221 36.7488,153.3523 Q36.1553,153.0825 35.5244,153.0825 Q34.1797,153.0825 33.4949,154.1492 Q32.8101,155.2158 32.8101,157.3159 Q32.8101,159.4077 33.4949,160.4744 Q34.1797,161.541 35.5244,161.541 Q36.1553,161.541 36.7488,161.2712 Q37.3423,161.0015 37.9731,160.4204 Z " fill="#000000"/><text fill="#000000" font-family="sans-serif" font-size="12" lengthAdjust="spacing" textLength="101" x="49.5" y="161.5352">ExtractSuperclass</text><line style="stroke:#A80036;stroke-width:1.5;" x1="21.5" x2="152.5" y1="173" y2="173"/><line style="stroke:#A80036;stroke-width:1.5;" x1="21.5" x2="152.5" y1="181" y2="181"/><!--MD5=[a53bbc1ef75aa6419445a7b3cd7c82a4]
reverse link ExtractSuperclassBase to ExtractSuperclass--><path codeLine="7" d="M87,101.07 C87,115.12 87,129.43 87,140.85 " fill="none" id="ExtractSuperclassBase-backto-ExtractSuperclass" style="stroke:#A80036;stroke-width:1.0;"/><polygon fill="none" points="80,101.03,87,81.03,94,101.03,80,101.03" style="stroke:#A80036;stroke-width:1.0;"/><!--MD5=[a6b074b73cd0cca037e375b84caeb4d6]
@startuml
class ExtractSuperclassBase {
    + method1() : int
    + method2() : int
}
class ExtractSuperclass {
}
ExtractSuperclassBase <|- - ExtractSuperclass
@enduml

PlantUML version 1.2021.2(Sun Mar 07 11:10:27 GMT 2021)
(GPL source distribution)
Java Runtime: OpenJDK Runtime Environment
JVM: OpenJDK 64-Bit Server VM
Default Encoding: UTF-8
Language: en
Country: GB
--></g></svg>