<?xml version="1.0" encoding="UTF-8" standalone="no"?><svg xmlns="http://www.w3.org/2000/svg" xmlns:xlink="http://www.w3.org/1999/xlink" contentScriptType="application/ecmascript" contentStyleType="text/css" height="120px" preserveAspectRatio="none" style="width:154px;height:120px;" version="1.1" viewBox="0 0 154 120" width="154px" zoomAndPan="magnify"><defs><filter height="300%" id="fivo12qdua4dd" width="300%" x="-1" y="-1"><feGaussianBlur result="blurOut" stdDeviation="2.0"/><feColorMatrix in="blurOut" result="blurOut2" type="matrix" values="0 0 0 0 0 0 0 0 0 0 0 0 0 0 0 0 0 0 .4 0"/><feOffset dx="4.0" dy="4.0" in="blurOut2" result="blurOut3"/><feBlend in="SourceGraphic" in2="blurOut3" mode="normal"/></filter></defs><g><!--MD5=[94ee48d242e3eb5d9845cd85121b658c]
class ExtractFieldStatic--><rect codeLine="1" fill="#FEFECE" filter="url(#fivo12qdua4dd)" height="99.8203" id="ExtractFieldStatic" style="stroke:#A80036;stroke-width:1.5;" width="133" x="7" y="7"/><ellipse cx="23.8" cy="23" fill="#ADD1B2" rx="11" ry="11" style="stroke:#A80036;stroke-width:1.0;"/><path d="M26.2731,29.1431 Q25.6921,29.4419 25.0529,29.5913 Q24.4138,29.7407 23.7082,29.7407 Q21.2014,29.7407 19.8815,28.0889 Q18.5617,26.437 18.5617,23.3159 Q18.5617,20.1865 19.8815,18.5347 Q21.2014,16.8828 23.7082,16.8828 Q24.4138,16.8828 25.0612,17.0322 Q25.7087,17.1816 26.2731,17.4805 L26.2731,20.2031 Q25.6423,19.6221 25.0488,19.3523 Q24.4553,19.0825 23.8244,19.0825 Q22.4797,19.0825 21.7949,20.1492 Q21.1101,21.2158 21.1101,23.3159 Q21.1101,25.4077 21.7949,26.4744 Q22.4797,27.541 23.8244,27.541 Q24.4553,27.541 25.0488,27.2712 Q25.6423,27.0015 26.2731,26.4204 Z " fill="#000000"/><text fill="#000000" font-family="sans-serif" font-size="12" lengthAdjust="spacing" textLength="97" x="38.2" y="27.5352">ExtractFieldStatic</text><line style="stroke:#A80036;stroke-width:1.5;" x1="8" x2="139" y1="39" y2="39"/><rect fill="none" height="6" style="stroke:#C82930;stroke-width:1.0;" width="6" x="15" y="47"/><text fill="#000000" font-family="sans-serif" font-size="11" lengthAdjust="spacing" text-decoration="underline" textLength="64" x="27" y="53.6348">_thing1 : int</text><rect fill="none" height="6" style="stroke:#C82930;stroke-width:1.0;" width="6" x="15" y="59.9551"/><text fill="#000000" font-family="sans-serif" font-size="11" lengthAdjust="spacing" text-decoration="underline" textLength="64" x="27" y="66.5898">_thing2 : int</text><rect fill="none" height="6" style="stroke:#C82930;stroke-width:1.0;" width="6" x="15" y="72.9102"/><text fill="#000000" font-family="sans-serif" font-size="11" lengthAdjust="spacing" text-decoration="underline" textLength="64" x="27" y="79.5449">_thing3 : int</text><line style="stroke:#A80036;stroke-width:1.5;" x1="8" x2="139" y1="85.8652" y2="85.8652"/><ellipse cx="18" cy="96.8652" fill="#84BE84" rx="3" ry="3" style="stroke:#038048;stroke-width:1.0;"/><text fill="#000000" font-family="sans-serif" font-size="11" lengthAdjust="spacing" text-decoration="underline" textLength="107" x="27" y="100.5">LongMethod() : void</text><!--MD5=[c5c35d5adb48a72d9d9fc85f2b7c858c]
@startuml
class ExtractFieldStatic {
    - {static} _thing1 : int
    - {static} _thing2 : int
    - {static} _thing3 : int
    + {static} LongMethod() : void
}
@enduml

PlantUML version 1.2021.2(Sun Mar 07 11:10:27 GMT 2021)
(GPL source distribution)
Java Runtime: OpenJDK Runtime Environment
JVM: OpenJDK 64-Bit Server VM
Default Encoding: UTF-8
Language: en
Country: GB
--></g></svg>