<?xml version="1.0" encoding="UTF-8" standalone="no"?><svg xmlns="http://www.w3.org/2000/svg" xmlns:xlink="http://www.w3.org/1999/xlink" contentScriptType="application/ecmascript" contentStyleType="text/css" height="120px" preserveAspectRatio="none" style="width:154px;height:120px;" version="1.1" viewBox="0 0 154 120" width="154px" zoomAndPan="magnify"><defs><filter height="300%" id="f1gqxsgv7dzeb7" width="300%" x="-1" y="-1"><feGaussianBlur result="blurOut" stdDeviation="2.0"/><feColorMatrix in="blurOut" result="blurOut2" type="matrix" values="0 0 0 0 0 0 0 0 0 0 0 0 0 0 0 0 0 0 .4 0"/><feOffset dx="4.0" dy="4.0" in="blurOut2" result="blurOut3"/><feBlend in="SourceGraphic" in2="blurOut3" mode="normal"/></filter></defs><g><!--MD5=[45bd72ab9e35b90dbc733a2d0b3922db]
class ExtractField--><rect codeLine="1" fill="#FEFECE" filter="url(#f1gqxsgv7dzeb7)" height="99.8203" id="ExtractField" style="stroke:#A80036;stroke-width:1.5;" width="133" x="7" y="7"/><ellipse cx="37.3" cy="23" fill="#ADD1B2" rx="11" ry="11" style="stroke:#A80036;stroke-width:1.0;"/><path d="M39.7731,29.1431 Q39.1921,29.4419 38.5529,29.5913 Q37.9138,29.7407 37.2082,29.7407 Q34.7014,29.7407 33.3815,28.0889 Q32.0617,26.437 32.0617,23.3159 Q32.0617,20.1865 33.3815,18.5347 Q34.7014,16.8828 37.2082,16.8828 Q37.9138,16.8828 38.5612,17.0322 Q39.2087,17.1816 39.7731,17.4805 L39.7731,20.2031 Q39.1423,19.6221 38.5488,19.3523 Q37.9553,19.0825 37.3244,19.0825 Q35.9797,19.0825 35.2949,20.1492 Q34.6101,21.2158 34.6101,23.3159 Q34.6101,25.4077 35.2949,26.4744 Q35.9797,27.541 37.3244,27.541 Q37.9553,27.541 38.5488,27.2712 Q39.1423,27.0015 39.7731,26.4204 Z " fill="#000000"/><text fill="#000000" font-family="sans-serif" font-size="12" lengthAdjust="spacing" textLength="67" x="54.7" y="27.5352">ExtractField</text><line style="stroke:#A80036;stroke-width:1.5;" x1="8" x2="139" y1="39" y2="39"/><rect fill="none" height="6" style="stroke:#C82930;stroke-width:1.0;" width="6" x="15" y="47"/><text fill="#000000" font-family="sans-serif" font-size="11" lengthAdjust="spacing" textLength="64" x="27" y="53.6348">_thing1 : int</text><rect fill="none" height="6" style="stroke:#C82930;stroke-width:1.0;" width="6" x="15" y="59.9551"/><text fill="#000000" font-family="sans-serif" font-size="11" lengthAdjust="spacing" textLength="64" x="27" y="66.5898">_thing2 : int</text><rect fill="none" height="6" style="stroke:#C82930;stroke-width:1.0;" width="6" x="15" y="72.9102"/><text fill="#000000" font-family="sans-serif" font-size="11" lengthAdjust="spacing" textLength="64" x="27" y="79.5449">_thing3 : int</text><line style="stroke:#A80036;stroke-width:1.5;" x1="8" x2="139" y1="85.8652" y2="85.8652"/><ellipse cx="18" cy="96.8652" fill="#84BE84" rx="3" ry="3" style="stroke:#038048;stroke-width:1.0;"/><text fill="#000000" font-family="sans-serif" font-size="11" lengthAdjust="spacing" textLength="107" x="27" y="100.5">LongMethod() : void</text><!--MD5=[b067d9876d076ed827579dbfc7680f24]
@startuml
class ExtractField {
    - _thing1 : int
    - _thing2 : int
    - _thing3 : int
    + LongMethod() : void
}
@enduml

PlantUML version 1.2021.2(Sun Mar 07 11:10:27 GMT 2021)
(GPL source distribution)
Java Runtime: OpenJDK Runtime Environment
JVM: OpenJDK 64-Bit Server VM
Default Encoding: UTF-8
Language: en
Country: GB
--></g></svg>