<?xml version="1.0" encoding="UTF-8" standalone="no"?><svg xmlns="http://www.w3.org/2000/svg" xmlns:xlink="http://www.w3.org/1999/xlink" contentScriptType="application/ecmascript" contentStyleType="text/css" height="232px" preserveAspectRatio="none" style="width:362px;height:232px;" version="1.1" viewBox="0 0 362 232" width="362px" zoomAndPan="magnify"><defs><filter height="300%" id="f18f0gmte8t1ou" width="300%" x="-1" y="-1"><feGaussianBlur result="blurOut" stdDeviation="2.0"/><feColorMatrix in="blurOut" result="blurOut2" type="matrix" values="0 0 0 0 0 0 0 0 0 0 0 0 0 0 0 0 0 0 .4 0"/><feOffset dx="4.0" dy="4.0" in="blurOut2" result="blurOut3"/><feBlend in="SourceGraphic" in2="blurOut3" mode="normal"/></filter></defs><g><!--MD5=[a28dc9cafe650f2897f68565201d4e3d]
class Concept1--><rect codeLine="1" fill="#FEFECE" filter="url(#f18f0gmte8t1ou)" height="75.6719" id="Concept1" style="stroke:#A80036;stroke-width:1.5;" width="141" x="31" y="7"/><ellipse cx="71.2" cy="23" fill="#ADD1B2" rx="11" ry="11" style="stroke:#A80036;stroke-width:1.0;"/><path d="M73.9656,18.875 Q74.1219,18.6563 74.3094,18.5469 Q74.4969,18.4375 74.7156,18.4375 Q75.0906,18.4375 75.325,18.7031 Q75.5594,18.9531 75.5594,19.5625 L75.5594,21.0156 Q75.5594,21.625 75.325,21.8906 Q75.0906,22.1563 74.7156,22.1563 Q74.3719,22.1563 74.1688,21.9531 Q73.9656,21.7656 73.8563,21.25 Q73.8094,20.8906 73.6219,20.7031 Q73.2938,20.3281 72.6844,20.1094 Q72.075,19.8906 71.45,19.8906 Q70.6844,19.8906 70.0438,20.2188 Q69.4188,20.5469 68.9188,21.2969 Q68.4344,22.0469 68.4344,23.0781 L68.4344,24.1719 Q68.4344,25.4063 69.325,26.2344 Q70.2156,27.0469 71.8094,27.0469 Q72.7469,27.0469 73.4031,26.7969 Q73.7938,26.6406 74.2156,26.2031 Q74.4813,25.9375 74.6219,25.8594 Q74.7781,25.7813 74.9813,25.7813 Q75.3094,25.7813 75.5594,26.0469 Q75.825,26.2969 75.825,26.6406 Q75.825,26.9844 75.4813,27.3906 Q74.9813,27.9688 74.1844,28.2969 Q73.1063,28.75 71.8094,28.75 Q70.2938,28.75 69.0906,28.125 Q68.1063,27.625 67.4188,26.5625 Q66.7313,25.4844 66.7313,24.2031 L66.7313,23.0469 Q66.7313,21.7188 67.3406,20.5781 Q67.9656,19.4219 69.0594,18.8125 Q70.1531,18.1875 71.3875,18.1875 Q72.1219,18.1875 72.7625,18.3594 Q73.4188,18.5156 73.9656,18.875 Z " fill="#000000"/><text fill="#000000" font-family="sans-serif" font-size="12" lengthAdjust="spacing" textLength="53" x="90.8" y="27.9102">Concept1</text><line style="stroke:#A80036;stroke-width:1.5;" x1="32" x2="171" y1="39" y2="39"/><rect fill="none" height="6" style="stroke:#C82930;stroke-width:1.0;" width="6" x="39" y="47"/><text fill="#000000" font-family="sans-serif" font-size="11" lengthAdjust="spacing" textLength="71" x="51" y="54.4189">_concept1 : int</text><line style="stroke:#A80036;stroke-width:1.5;" x1="32" x2="171" y1="60.8359" y2="60.8359"/><ellipse cx="42" cy="71.8359" fill="#84BE84" rx="3" ry="3" style="stroke:#038048;stroke-width:1.0;"/><text fill="#000000" font-family="sans-serif" font-size="11" lengthAdjust="spacing" textLength="115" x="51" y="76.2549">Concept1Function() : int</text><!--MD5=[cfc8232088cc087fc08744c68b75d5be]
class Concept2--><rect codeLine="5" fill="#FEFECE" filter="url(#f18f0gmte8t1ou)" height="75.6719" id="Concept2" style="stroke:#A80036;stroke-width:1.5;" width="141" x="207" y="7"/><ellipse cx="247.2" cy="23" fill="#ADD1B2" rx="11" ry="11" style="stroke:#A80036;stroke-width:1.0;"/><path d="M249.9656,18.875 Q250.1219,18.6563 250.3094,18.5469 Q250.4969,18.4375 250.7156,18.4375 Q251.0906,18.4375 251.325,18.7031 Q251.5594,18.9531 251.5594,19.5625 L251.5594,21.0156 Q251.5594,21.625 251.325,21.8906 Q251.0906,22.1563 250.7156,22.1563 Q250.3719,22.1563 250.1688,21.9531 Q249.9656,21.7656 249.8563,21.25 Q249.8094,20.8906 249.6219,20.7031 Q249.2938,20.3281 248.6844,20.1094 Q248.075,19.8906 247.45,19.8906 Q246.6844,19.8906 246.0438,20.2188 Q245.4188,20.5469 244.9188,21.2969 Q244.4344,22.0469 244.4344,23.0781 L244.4344,24.1719 Q244.4344,25.4063 245.325,26.2344 Q246.2156,27.0469 247.8094,27.0469 Q248.7469,27.0469 249.4031,26.7969 Q249.7938,26.6406 250.2156,26.2031 Q250.4813,25.9375 250.6219,25.8594 Q250.7781,25.7813 250.9813,25.7813 Q251.3094,25.7813 251.5594,26.0469 Q251.825,26.2969 251.825,26.6406 Q251.825,26.9844 251.4813,27.3906 Q250.9813,27.9688 250.1844,28.2969 Q249.1063,28.75 247.8094,28.75 Q246.2938,28.75 245.0906,28.125 Q244.1063,27.625 243.4188,26.5625 Q242.7313,25.4844 242.7313,24.2031 L242.7313,23.0469 Q242.7313,21.7188 243.3406,20.5781 Q243.9656,19.4219 245.0594,18.8125 Q246.1531,18.1875 247.3875,18.1875 Q248.1219,18.1875 248.7625,18.3594 Q249.4188,18.5156 249.9656,18.875 Z " fill="#000000"/><text fill="#000000" font-family="sans-serif" font-size="12" lengthAdjust="spacing" textLength="53" x="266.8" y="27.9102">Concept2</text><line style="stroke:#A80036;stroke-width:1.5;" x1="208" x2="347" y1="39" y2="39"/><rect fill="none" height="6" style="stroke:#C82930;stroke-width:1.0;" width="6" x="215" y="47"/><text fill="#000000" font-family="sans-serif" font-size="11" lengthAdjust="spacing" textLength="71" x="227" y="54.4189">_concept2 : int</text><line style="stroke:#A80036;stroke-width:1.5;" x1="208" x2="347" y1="60.8359" y2="60.8359"/><ellipse cx="218" cy="71.8359" fill="#84BE84" rx="3" ry="3" style="stroke:#038048;stroke-width:1.0;"/><text fill="#000000" font-family="sans-serif" font-size="11" lengthAdjust="spacing" textLength="115" x="227" y="76.2549">Concept2Function() : int</text><!--MD5=[7d630bb81c62625be4579eb47c4d0a54]
class ExtractClass--><rect codeLine="9" fill="#FEFECE" filter="url(#f18f0gmte8t1ou)" height="75.6719" id="ExtractClass" style="stroke:#A80036;stroke-width:1.5;" width="189" x="7" y="143"/><ellipse cx="62.75" cy="159" fill="#ADD1B2" rx="11" ry="11" style="stroke:#A80036;stroke-width:1.0;"/><path d="M65.5156,154.875 Q65.6719,154.6563 65.8594,154.5469 Q66.0469,154.4375 66.2656,154.4375 Q66.6406,154.4375 66.875,154.7031 Q67.1094,154.9531 67.1094,155.5625 L67.1094,157.0156 Q67.1094,157.625 66.875,157.8906 Q66.6406,158.1563 66.2656,158.1563 Q65.9219,158.1563 65.7188,157.9531 Q65.5156,157.7656 65.4063,157.25 Q65.3594,156.8906 65.1719,156.7031 Q64.8438,156.3281 64.2344,156.1094 Q63.625,155.8906 63,155.8906 Q62.2344,155.8906 61.5938,156.2188 Q60.9688,156.5469 60.4688,157.2969 Q59.9844,158.0469 59.9844,159.0781 L59.9844,160.1719 Q59.9844,161.4063 60.875,162.2344 Q61.7656,163.0469 63.3594,163.0469 Q64.2969,163.0469 64.9531,162.7969 Q65.3438,162.6406 65.7656,162.2031 Q66.0313,161.9375 66.1719,161.8594 Q66.3281,161.7813 66.5313,161.7813 Q66.8594,161.7813 67.1094,162.0469 Q67.375,162.2969 67.375,162.6406 Q67.375,162.9844 67.0313,163.3906 Q66.5313,163.9688 65.7344,164.2969 Q64.6563,164.75 63.3594,164.75 Q61.8438,164.75 60.6406,164.125 Q59.6563,163.625 58.9688,162.5625 Q58.2813,161.4844 58.2813,160.2031 L58.2813,159.0469 Q58.2813,157.7188 58.8906,156.5781 Q59.5156,155.4219 60.6094,154.8125 Q61.7031,154.1875 62.9375,154.1875 Q63.6719,154.1875 64.3125,154.3594 Q64.9688,154.5156 65.5156,154.875 Z " fill="#000000"/><text fill="#000000" font-family="sans-serif" font-size="12" lengthAdjust="spacing" textLength="69" x="83.25" y="163.9102">ExtractClass</text><line style="stroke:#A80036;stroke-width:1.5;" x1="8" x2="195" y1="175" y2="175"/><rect fill="none" height="6" style="stroke:#C82930;stroke-width:1.0;" width="6" x="15" y="183"/><text fill="#000000" font-family="sans-serif" font-size="11" lengthAdjust="spacing" textLength="163" x="27" y="190.4189">«readonly» _concept1 : Concept1</text><rect fill="none" height="6" style="stroke:#C82930;stroke-width:1.0;" width="6" x="15" y="196.8359"/><text fill="#000000" font-family="sans-serif" font-size="11" lengthAdjust="spacing" textLength="163" x="27" y="204.2549">«readonly» _concept2 : Concept2</text><line style="stroke:#A80036;stroke-width:1.5;" x1="8" x2="195" y1="210.6719" y2="210.6719"/><!--MD5=[83bebd8f6d602e861219f079528b1227]
link Concept1 to Concept2--><!--MD5=[a6848e963ab5858244c8d7e79071329f]
link Concept1 to ExtractClass--><!--MD5=[8a9194783f5e4bf85d96aee19f850fe5]
@startuml
class Concept1 {
    - _concept1 : int
    + Concept1Function() : int
}
class Concept2 {
    - _concept2 : int
    + Concept2Function() : int
}
class ExtractClass {
    - <<readonly>> _concept1 : Concept1
    - <<readonly>> _concept2 : Concept2
}
@enduml

PlantUML version 1.2021.2(Sun Mar 07 11:10:27 GMT 2021)
(GPL source distribution)
Java Runtime: OpenJDK Runtime Environment
JVM: OpenJDK 64-Bit Server VM
Default Encoding: UTF-8
Language: en
Country: GB
--></g></svg>