<?xml version="1.0" encoding="UTF-8" standalone="no"?><svg xmlns="http://www.w3.org/2000/svg" xmlns:xlink="http://www.w3.org/1999/xlink" contentScriptType="application/ecmascript" contentStyleType="text/css" height="232px" preserveAspectRatio="none" style="width:142px;height:232px;" version="1.1" viewBox="0 0 142 232" width="142px" zoomAndPan="magnify"><defs><filter height="300%" id="f192vhlc6dr6k0" width="300%" x="-1" y="-1"><feGaussianBlur result="blurOut" stdDeviation="2.0"/><feColorMatrix in="blurOut" result="blurOut2" type="matrix" values="0 0 0 0 0 0 0 0 0 0 0 0 0 0 0 0 0 0 .4 0"/><feOffset dx="4.0" dy="4.0" in="blurOut2" result="blurOut3"/><feBlend in="SourceGraphic" in2="blurOut3" mode="normal"/></filter></defs><g><!--MD5=[972e09a45ed6806e190f049052565163]
class IExtractInterface--><rect codeLine="1" fill="#FEFECE" filter="url(#f192vhlc6dr6k0)" height="75.6719" id="IExtractInterface" style="stroke:#A80036;stroke-width:1.5;" width="121" x="7" y="7"/><ellipse cx="22" cy="23" fill="#B4A7E5" rx="11" ry="11" style="stroke:#A80036;stroke-width:1.0;"/><path d="M22.9531,19.6406 L22.9531,26.2969 L24.6719,26.2969 Q25.2813,26.2969 25.5469,26.5313 Q25.8125,26.7656 25.8125,27.1563 Q25.8125,27.5313 25.5469,27.7656 Q25.2813,28 24.6719,28 L19.5313,28 Q18.9219,28 18.6563,27.7656 Q18.3906,27.5313 18.3906,27.1406 Q18.3906,26.7656 18.6563,26.5313 Q18.9219,26.2969 19.5313,26.2969 L21.25,26.2969 L21.25,19.6406 L19.5313,19.6406 Q18.9219,19.6406 18.6563,19.4063 Q18.3906,19.1719 18.3906,18.7813 Q18.3906,18.4063 18.6563,18.1719 Q18.9219,17.9375 19.5313,17.9375 L24.6719,17.9375 Q25.2813,17.9375 25.5469,18.1719 Q25.8125,18.4063 25.8125,18.7813 Q25.8125,19.1719 25.5469,19.4063 Q25.2813,19.6406 24.6719,19.6406 L22.9531,19.6406 Z " fill="#000000"/><text fill="#000000" font-family="sans-serif" font-size="12" font-style="italic" lengthAdjust="spacing" textLength="89" x="36" y="27.9102">IExtractInterface</text><line style="stroke:#A80036;stroke-width:1.5;" x1="8" x2="127" y1="39" y2="39"/><line style="stroke:#A80036;stroke-width:1.5;" x1="8" x2="127" y1="47" y2="47"/><text fill="#000000" font-family="sans-serif" font-size="11" lengthAdjust="spacing" textLength="69" x="13" y="62.4189">method1() : int</text><text fill="#000000" font-family="sans-serif" font-size="11" lengthAdjust="spacing" textLength="69" x="13" y="76.2549">method2() : int</text><!--MD5=[2acff349abd07c5da3476110c6a4ae79]
class ExtractInterface--><rect codeLine="5" fill="#FEFECE" filter="url(#f192vhlc6dr6k0)" height="75.6719" id="ExtractInterface" style="stroke:#A80036;stroke-width:1.5;" width="115" x="10" y="143"/><ellipse cx="25" cy="159" fill="#ADD1B2" rx="11" ry="11" style="stroke:#A80036;stroke-width:1.0;"/><path d="M27.7656,154.875 Q27.9219,154.6563 28.1094,154.5469 Q28.2969,154.4375 28.5156,154.4375 Q28.8906,154.4375 29.125,154.7031 Q29.3594,154.9531 29.3594,155.5625 L29.3594,157.0156 Q29.3594,157.625 29.125,157.8906 Q28.8906,158.1563 28.5156,158.1563 Q28.1719,158.1563 27.9688,157.9531 Q27.7656,157.7656 27.6563,157.25 Q27.6094,156.8906 27.4219,156.7031 Q27.0938,156.3281 26.4844,156.1094 Q25.875,155.8906 25.25,155.8906 Q24.4844,155.8906 23.8438,156.2188 Q23.2188,156.5469 22.7188,157.2969 Q22.2344,158.0469 22.2344,159.0781 L22.2344,160.1719 Q22.2344,161.4063 23.125,162.2344 Q24.0156,163.0469 25.6094,163.0469 Q26.5469,163.0469 27.2031,162.7969 Q27.5938,162.6406 28.0156,162.2031 Q28.2813,161.9375 28.4219,161.8594 Q28.5781,161.7813 28.7813,161.7813 Q29.1094,161.7813 29.3594,162.0469 Q29.625,162.2969 29.625,162.6406 Q29.625,162.9844 29.2813,163.3906 Q28.7813,163.9688 27.9844,164.2969 Q26.9063,164.75 25.6094,164.75 Q24.0938,164.75 22.8906,164.125 Q21.9063,163.625 21.2188,162.5625 Q20.5313,161.4844 20.5313,160.2031 L20.5313,159.0469 Q20.5313,157.7188 21.1406,156.5781 Q21.7656,155.4219 22.8594,154.8125 Q23.9531,154.1875 25.1875,154.1875 Q25.9219,154.1875 26.5625,154.3594 Q27.2188,154.5156 27.7656,154.875 Z " fill="#000000"/><text fill="#000000" font-family="sans-serif" font-size="12" lengthAdjust="spacing" textLength="83" x="39" y="163.9102">ExtractInterface</text><line style="stroke:#A80036;stroke-width:1.5;" x1="11" x2="124" y1="175" y2="175"/><line style="stroke:#A80036;stroke-width:1.5;" x1="11" x2="124" y1="183" y2="183"/><ellipse cx="21" cy="194" fill="#84BE84" rx="3" ry="3" style="stroke:#038048;stroke-width:1.0;"/><text fill="#000000" font-family="sans-serif" font-size="11" lengthAdjust="spacing" textLength="69" x="30" y="198.4189">method1() : int</text><ellipse cx="21" cy="207.8359" fill="#84BE84" rx="3" ry="3" style="stroke:#038048;stroke-width:1.0;"/><text fill="#000000" font-family="sans-serif" font-size="11" lengthAdjust="spacing" textLength="69" x="30" y="212.2549">method2() : int</text><!--MD5=[77f1c1fe81be65fe12b62048bd93a0f3]
reverse link IExtractInterface to ExtractInterface--><path codeLine="9" d="M67.5,103.54 C67.5,116.86 67.5,130.69 67.5,142.87 " fill="none" id="IExtractInterface-backto-ExtractInterface" style="stroke:#A80036;stroke-width:1.0;"/><polygon fill="none" points="60.5,103.33,67.5,83.33,74.5,103.33,60.5,103.33" style="stroke:#A80036;stroke-width:1.0;"/><!--MD5=[f7048d46ae4bb88ef91f23539acd0718]
@startuml
interface IExtractInterface {
    method1() : int
    method2() : int
}
class ExtractInterface {
    + method1() : int
    + method2() : int
}
IExtractInterface <|- - ExtractInterface
@enduml

PlantUML version 1.2021.2(Sun Mar 07 11:10:27 GMT 2021)
(GPL source distribution)
Java Runtime: OpenJDK Runtime Environment
JVM: OpenJDK 64-Bit Server VM
Default Encoding: UTF-8
Language: en
Country: GB
--></g></svg>