<?xml version="1.0" encoding="UTF-8" standalone="no"?><svg xmlns="http://www.w3.org/2000/svg" xmlns:xlink="http://www.w3.org/1999/xlink" contentScriptType="application/ecmascript" contentStyleType="text/css" height="228px" preserveAspectRatio="none" style="width:146px;height:228px;" version="1.1" viewBox="0 0 146 228" width="146px" zoomAndPan="magnify"><defs><filter height="300%" id="f192vhlc6dr6k0" width="300%" x="-1" y="-1"><feGaussianBlur result="blurOut" stdDeviation="2.0"/><feColorMatrix in="blurOut" result="blurOut2" type="matrix" values="0 0 0 0 0 0 0 0 0 0 0 0 0 0 0 0 0 0 .4 0"/><feOffset dx="4.0" dy="4.0" in="blurOut2" result="blurOut3"/><feBlend in="SourceGraphic" in2="blurOut3" mode="normal"/></filter></defs><g><!--MD5=[972e09a45ed6806e190f049052565163]
class IExtractInterface--><rect codeLine="1" fill="#FEFECE" filter="url(#f192vhlc6dr6k0)" height="73.9102" id="IExtractInterface" style="stroke:#A80036;stroke-width:1.5;" width="125" x="7" y="7"/><ellipse cx="22" cy="23" fill="#B4A7E5" rx="11" ry="11" style="stroke:#A80036;stroke-width:1.0;"/><path d="M18.4277,19.2651 L18.4277,17.1069 L25.8071,17.1069 L25.8071,19.2651 L23.3418,19.2651 L23.3418,27.3418 L25.8071,27.3418 L25.8071,29.5 L18.4277,29.5 L18.4277,27.3418 L20.8931,27.3418 L20.8931,19.2651 Z " fill="#000000"/><text fill="#000000" font-family="sans-serif" font-size="12" font-style="italic" lengthAdjust="spacing" textLength="93" x="36" y="27.5352">IExtractInterface</text><line style="stroke:#A80036;stroke-width:1.5;" x1="8" x2="131" y1="39" y2="39"/><line style="stroke:#A80036;stroke-width:1.5;" x1="8" x2="131" y1="47" y2="47"/><text fill="#000000" font-family="sans-serif" font-size="11" lengthAdjust="spacing" textLength="79" x="13" y="61.6348">method1() : int</text><text fill="#000000" font-family="sans-serif" font-size="11" lengthAdjust="spacing" textLength="79" x="13" y="74.5898">method2() : int</text><!--MD5=[2acff349abd07c5da3476110c6a4ae79]
class ExtractInterface--><rect codeLine="5" fill="#FEFECE" filter="url(#f192vhlc6dr6k0)" height="73.9102" id="ExtractInterface" style="stroke:#A80036;stroke-width:1.5;" width="122" x="8.5" y="141"/><ellipse cx="23.5" cy="157" fill="#ADD1B2" rx="11" ry="11" style="stroke:#A80036;stroke-width:1.0;"/><path d="M25.9731,163.1431 Q25.3921,163.4419 24.7529,163.5913 Q24.1138,163.7407 23.4082,163.7407 Q20.9014,163.7407 19.5815,162.0889 Q18.2617,160.437 18.2617,157.3159 Q18.2617,154.1865 19.5815,152.5347 Q20.9014,150.8828 23.4082,150.8828 Q24.1138,150.8828 24.7612,151.0322 Q25.4087,151.1816 25.9731,151.4805 L25.9731,154.2031 Q25.3423,153.6221 24.7488,153.3523 Q24.1553,153.0825 23.5244,153.0825 Q22.1797,153.0825 21.4949,154.1492 Q20.8101,155.2158 20.8101,157.3159 Q20.8101,159.4077 21.4949,160.4744 Q22.1797,161.541 23.5244,161.541 Q24.1553,161.541 24.7488,161.2712 Q25.3423,161.0015 25.9731,160.4204 Z " fill="#000000"/><text fill="#000000" font-family="sans-serif" font-size="12" lengthAdjust="spacing" textLength="90" x="37.5" y="161.5352">ExtractInterface</text><line style="stroke:#A80036;stroke-width:1.5;" x1="9.5" x2="129.5" y1="173" y2="173"/><line style="stroke:#A80036;stroke-width:1.5;" x1="9.5" x2="129.5" y1="181" y2="181"/><ellipse cx="19.5" cy="192" fill="#84BE84" rx="3" ry="3" style="stroke:#038048;stroke-width:1.0;"/><text fill="#000000" font-family="sans-serif" font-size="11" lengthAdjust="spacing" textLength="79" x="28.5" y="195.6348">method1() : int</text><ellipse cx="19.5" cy="204.9551" fill="#84BE84" rx="3" ry="3" style="stroke:#038048;stroke-width:1.0;"/><text fill="#000000" font-family="sans-serif" font-size="11" lengthAdjust="spacing" textLength="79" x="28.5" y="208.5898">method2() : int</text><!--MD5=[77f1c1fe81be65fe12b62048bd93a0f3]
reverse link IExtractInterface to ExtractInterface--><path codeLine="9" d="M69.5,101.38 C69.5,114.8 69.5,128.76 69.5,140.97 " fill="none" id="IExtractInterface-backto-ExtractInterface" style="stroke:#A80036;stroke-width:1.0;"/><polygon fill="none" points="62.5,101.07,69.5,81.07,76.5,101.07,62.5,101.07" style="stroke:#A80036;stroke-width:1.0;"/><!--MD5=[f7048d46ae4bb88ef91f23539acd0718]
@startuml
interface IExtractInterface {
    method1() : int
    method2() : int
}
class ExtractInterface {
    + method1() : int
    + method2() : int
}
IExtractInterface <|- - ExtractInterface
@enduml

PlantUML version 1.2021.2(Sun Mar 07 11:10:27 GMT 2021)
(GPL source distribution)
Java Runtime: OpenJDK Runtime Environment
JVM: OpenJDK 64-Bit Server VM
Default Encoding: UTF-8
Language: en
Country: GB
--></g></svg>