<?xml version="1.0" encoding="UTF-8" standalone="no"?><svg xmlns="http://www.w3.org/2000/svg" xmlns:xlink="http://www.w3.org/1999/xlink" contentScriptType="application/ecmascript" contentStyleType="text/css" height="228px" preserveAspectRatio="none" style="width:392px;height:228px;" version="1.1" viewBox="0 0 392 228" width="392px" zoomAndPan="magnify"><defs><filter height="300%" id="f18f0gmte8t1ou" width="300%" x="-1" y="-1"><feGaussianBlur result="blurOut" stdDeviation="2.0"/><feColorMatrix in="blurOut" result="blurOut2" type="matrix" values="0 0 0 0 0 0 0 0 0 0 0 0 0 0 0 0 0 0 .4 0"/><feOffset dx="4.0" dy="4.0" in="blurOut2" result="blurOut3"/><feBlend in="SourceGraphic" in2="blurOut3" mode="normal"/></filter></defs><g><!--MD5=[a28dc9cafe650f2897f68565201d4e3d]
class Concept1--><rect codeLine="1" fill="#FEFECE" filter="url(#f18f0gmte8t1ou)" height="73.9102" id="Concept1" style="stroke:#A80036;stroke-width:1.5;" width="156" x="31.5" y="7"/><ellipse cx="77.75" cy="23" fill="#ADD1B2" rx="11" ry="11" style="stroke:#A80036;stroke-width:1.0;"/><path d="M80.2231,29.1431 Q79.6421,29.4419 79.0029,29.5913 Q78.3638,29.7407 77.6582,29.7407 Q75.1514,29.7407 73.8315,28.0889 Q72.5117,26.437 72.5117,23.3159 Q72.5117,20.1865 73.8315,18.5347 Q75.1514,16.8828 77.6582,16.8828 Q78.3638,16.8828 79.0112,17.0322 Q79.6587,17.1816 80.2231,17.4805 L80.2231,20.2031 Q79.5923,19.6221 78.9988,19.3523 Q78.4053,19.0825 77.7744,19.0825 Q76.4297,19.0825 75.7449,20.1492 Q75.0601,21.2158 75.0601,23.3159 Q75.0601,25.4077 75.7449,26.4744 Q76.4297,27.541 77.7744,27.541 Q78.4053,27.541 78.9988,27.2712 Q79.5923,27.0015 80.2231,26.4204 Z " fill="#000000"/><text fill="#000000" font-family="sans-serif" font-size="12" lengthAdjust="spacing" textLength="55" x="98.25" y="27.5352">Concept1</text><line style="stroke:#A80036;stroke-width:1.5;" x1="32.5" x2="186.5" y1="39" y2="39"/><rect fill="none" height="6" style="stroke:#C82930;stroke-width:1.0;" width="6" x="39.5" y="47"/><text fill="#000000" font-family="sans-serif" font-size="11" lengthAdjust="spacing" textLength="79" x="51.5" y="53.6348">_concept1 : int</text><line style="stroke:#A80036;stroke-width:1.5;" x1="32.5" x2="186.5" y1="59.9551" y2="59.9551"/><ellipse cx="42.5" cy="70.9551" fill="#84BE84" rx="3" ry="3" style="stroke:#038048;stroke-width:1.0;"/><text fill="#000000" font-family="sans-serif" font-size="11" lengthAdjust="spacing" textLength="130" x="51.5" y="74.5898">Concept1Function() : int</text><!--MD5=[cfc8232088cc087fc08744c68b75d5be]
class Concept2--><rect codeLine="5" fill="#FEFECE" filter="url(#f18f0gmte8t1ou)" height="73.9102" id="Concept2" style="stroke:#A80036;stroke-width:1.5;" width="156" x="222.5" y="7"/><ellipse cx="268.75" cy="23" fill="#ADD1B2" rx="11" ry="11" style="stroke:#A80036;stroke-width:1.0;"/><path d="M271.2231,29.1431 Q270.6421,29.4419 270.0029,29.5913 Q269.3638,29.7407 268.6582,29.7407 Q266.1514,29.7407 264.8315,28.0889 Q263.5117,26.437 263.5117,23.3159 Q263.5117,20.1865 264.8315,18.5347 Q266.1514,16.8828 268.6582,16.8828 Q269.3638,16.8828 270.0112,17.0322 Q270.6587,17.1816 271.2231,17.4805 L271.2231,20.2031 Q270.5923,19.6221 269.9988,19.3523 Q269.4053,19.0825 268.7744,19.0825 Q267.4297,19.0825 266.7449,20.1492 Q266.0601,21.2158 266.0601,23.3159 Q266.0601,25.4077 266.7449,26.4744 Q267.4297,27.541 268.7744,27.541 Q269.4053,27.541 269.9988,27.2712 Q270.5923,27.0015 271.2231,26.4204 Z " fill="#000000"/><text fill="#000000" font-family="sans-serif" font-size="12" lengthAdjust="spacing" textLength="55" x="289.25" y="27.5352">Concept2</text><line style="stroke:#A80036;stroke-width:1.5;" x1="223.5" x2="377.5" y1="39" y2="39"/><rect fill="none" height="6" style="stroke:#C82930;stroke-width:1.0;" width="6" x="230.5" y="47"/><text fill="#000000" font-family="sans-serif" font-size="11" lengthAdjust="spacing" textLength="79" x="242.5" y="53.6348">_concept2 : int</text><line style="stroke:#A80036;stroke-width:1.5;" x1="223.5" x2="377.5" y1="59.9551" y2="59.9551"/><ellipse cx="233.5" cy="70.9551" fill="#84BE84" rx="3" ry="3" style="stroke:#038048;stroke-width:1.0;"/><text fill="#000000" font-family="sans-serif" font-size="11" lengthAdjust="spacing" textLength="130" x="242.5" y="74.5898">Concept2Function() : int</text><!--MD5=[7d630bb81c62625be4579eb47c4d0a54]
class ExtractClass--><rect codeLine="9" fill="#FEFECE" filter="url(#f18f0gmte8t1ou)" height="73.9102" id="ExtractClass" style="stroke:#A80036;stroke-width:1.5;" width="205" x="7" y="141"/><ellipse cx="70.25" cy="157" fill="#ADD1B2" rx="11" ry="11" style="stroke:#A80036;stroke-width:1.0;"/><path d="M72.7231,163.1431 Q72.1421,163.4419 71.5029,163.5913 Q70.8638,163.7407 70.1582,163.7407 Q67.6514,163.7407 66.3315,162.0889 Q65.0117,160.437 65.0117,157.3159 Q65.0117,154.1865 66.3315,152.5347 Q67.6514,150.8828 70.1582,150.8828 Q70.8638,150.8828 71.5112,151.0322 Q72.1587,151.1816 72.7231,151.4805 L72.7231,154.2031 Q72.0923,153.6221 71.4988,153.3523 Q70.9053,153.0825 70.2744,153.0825 Q68.9297,153.0825 68.2449,154.1492 Q67.5601,155.2158 67.5601,157.3159 Q67.5601,159.4077 68.2449,160.4744 Q68.9297,161.541 70.2744,161.541 Q70.9053,161.541 71.4988,161.2712 Q72.0923,161.0015 72.7231,160.4204 Z " fill="#000000"/><text fill="#000000" font-family="sans-serif" font-size="12" lengthAdjust="spacing" textLength="70" x="90.75" y="161.5352">ExtractClass</text><line style="stroke:#A80036;stroke-width:1.5;" x1="8" x2="211" y1="173" y2="173"/><rect fill="none" height="6" style="stroke:#C82930;stroke-width:1.0;" width="6" x="15" y="181"/><text fill="#000000" font-family="sans-serif" font-size="11" lengthAdjust="spacing" textLength="179" x="27" y="187.6348">«readonly» _concept1 : Concept1</text><rect fill="none" height="6" style="stroke:#C82930;stroke-width:1.0;" width="6" x="15" y="193.9551"/><text fill="#000000" font-family="sans-serif" font-size="11" lengthAdjust="spacing" textLength="179" x="27" y="200.5898">«readonly» _concept2 : Concept2</text><line style="stroke:#A80036;stroke-width:1.5;" x1="8" x2="211" y1="206.9102" y2="206.9102"/><!--MD5=[83bebd8f6d602e861219f079528b1227]
link Concept1 to Concept2--><!--MD5=[a6848e963ab5858244c8d7e79071329f]
link Concept1 to ExtractClass--><!--MD5=[8a9194783f5e4bf85d96aee19f850fe5]
@startuml
class Concept1 {
    - _concept1 : int
    + Concept1Function() : int
}
class Concept2 {
    - _concept2 : int
    + Concept2Function() : int
}
class ExtractClass {
    - <<readonly>> _concept1 : Concept1
    - <<readonly>> _concept2 : Concept2
}
@enduml

PlantUML version 1.2021.2(Sun Mar 07 11:10:27 GMT 2021)
(GPL source distribution)
Java Runtime: OpenJDK Runtime Environment
JVM: OpenJDK 64-Bit Server VM
Default Encoding: UTF-8
Language: en
Country: GB
--></g></svg>