<?xml version="1.0" encoding="UTF-8" standalone="no"?><svg xmlns="http://www.w3.org/2000/svg" xmlns:xlink="http://www.w3.org/1999/xlink" contentScriptType="application/ecmascript" contentStyleType="text/css" height="224px" preserveAspectRatio="none" style="width:198px;height:224px;" version="1.1" viewBox="0 0 198 224" width="198px" zoomAndPan="magnify"><defs><filter height="300%" id="f19d5ambta9ia3" width="300%" x="-1" y="-1"><feGaussianBlur result="blurOut" stdDeviation="2.0"/><feColorMatrix in="blurOut" result="blurOut2" type="matrix" values="0 0 0 0 0 0 0 0 0 0 0 0 0 0 0 0 0 0 .4 0"/><feOffset dx="4.0" dy="4.0" in="blurOut2" result="blurOut3"/><feBlend in="SourceGraphic" in2="blurOut3" mode="normal"/></filter></defs><g><!--MD5=[3128f07fffe0068159d422a4b1916c6e]
class Key2--><rect codeLine="1" fill="#FEFECE" filter="url(#f19d5ambta9ia3)" height="203.4609" id="Key2" style="stroke:#A80036;stroke-width:1.5;" width="177" x="7" y="7"/><ellipse cx="76.75" cy="23" fill="#ADD1B2" rx="11" ry="11" style="stroke:#A80036;stroke-width:1.0;"/><path d="M79.2231,29.1431 Q78.6421,29.4419 78.0029,29.5913 Q77.3638,29.7407 76.6582,29.7407 Q74.1514,29.7407 72.8315,28.0889 Q71.5117,26.437 71.5117,23.3159 Q71.5117,20.1865 72.8315,18.5347 Q74.1514,16.8828 76.6582,16.8828 Q77.3638,16.8828 78.0112,17.0322 Q78.6587,17.1816 79.2231,17.4805 L79.2231,20.2031 Q78.5923,19.6221 77.9988,19.3523 Q77.4053,19.0825 76.7744,19.0825 Q75.4297,19.0825 74.7449,20.1492 Q74.0601,21.2158 74.0601,23.3159 Q74.0601,25.4077 74.7449,26.4744 Q75.4297,27.541 76.7744,27.541 Q77.4053,27.541 77.9988,27.2712 Q78.5923,27.0015 79.2231,26.4204 Z " fill="#000000"/><text fill="#000000" font-family="sans-serif" font-size="12" lengthAdjust="spacing" textLength="29" x="97.25" y="27.5352">Key2</text><line style="stroke:#A80036;stroke-width:1.5;" x1="8" x2="183" y1="39" y2="39"/><ellipse cx="18" cy="50" rx="3" ry="3" style="stroke:#038048;stroke-width:1.0;fill:none;"/><text fill="#000000" font-family="sans-serif" font-size="11" lengthAdjust="spacing" text-decoration="underline" textLength="131" x="27" y="53.6348">StaticPublicField : int = 0</text><ellipse cx="18" cy="62.9551" rx="3" ry="3" style="stroke:#038048;stroke-width:1.0;fill:none;"/><text fill="#000000" font-family="sans-serif" font-size="11" lengthAdjust="spacing" textLength="102" x="27" y="66.5898">PublicField : int = 0</text><polygon fill="none" points="18,70.9102,22,74.9102,18,78.9102,14,74.9102" style="stroke:#B38D22;stroke-width:1.0;"/><text fill="#000000" font-family="sans-serif" font-size="11" lengthAdjust="spacing" text-decoration="underline" textLength="150" x="27" y="79.5449">StaticProtectedField : int = 0</text><polygon fill="none" points="18,83.8652,22,87.8652,18,91.8652,14,87.8652" style="stroke:#B38D22;stroke-width:1.0;"/><text fill="#000000" font-family="sans-serif" font-size="11" lengthAdjust="spacing" textLength="121" x="27" y="92.5">ProtectedField : int = 0</text><rect fill="none" height="6" style="stroke:#C82930;stroke-width:1.0;" width="6" x="15" y="98.8203"/><text fill="#000000" font-family="sans-serif" font-size="11" lengthAdjust="spacing" text-decoration="underline" textLength="141" x="27" y="105.4551">_staticPrivateField : int = 0</text><rect fill="none" height="6" style="stroke:#C82930;stroke-width:1.0;" width="6" x="15" y="111.7754"/><text fill="#000000" font-family="sans-serif" font-size="11" lengthAdjust="spacing" textLength="113" x="27" y="118.4102">_privateField : int = 0</text><line style="stroke:#A80036;stroke-width:1.5;" x1="8" x2="183" y1="124.7305" y2="124.7305"/><ellipse cx="18" cy="135.7305" fill="#84BE84" rx="3" ry="3" style="stroke:#038048;stroke-width:1.0;"/><text fill="#000000" font-family="sans-serif" font-size="11" lengthAdjust="spacing" textLength="103" x="27" y="139.3652">PublicMethod() : int</text><ellipse cx="18" cy="148.6855" fill="#84BE84" rx="3" ry="3" style="stroke:#038048;stroke-width:1.0;"/><text fill="#000000" font-family="sans-serif" font-size="11" lengthAdjust="spacing" text-decoration="underline" textLength="132" x="27" y="152.3203">StaticPublicMethod() : int</text><polygon fill="#FFFF44" points="18,156.6406,22,160.6406,18,164.6406,14,160.6406" style="stroke:#B38D22;stroke-width:1.0;"/><text fill="#000000" font-family="sans-serif" font-size="11" lengthAdjust="spacing" text-decoration="underline" textLength="151" x="27" y="165.2754">StaticProtectedMethod() : int</text><polygon fill="#FFFF44" points="18,169.5957,22,173.5957,18,177.5957,14,173.5957" style="stroke:#B38D22;stroke-width:1.0;"/><text fill="#000000" font-family="sans-serif" font-size="11" lengthAdjust="spacing" textLength="122" x="27" y="178.2305">ProtectedMethod() : int</text><rect fill="#F24D5C" height="6" style="stroke:#C82930;stroke-width:1.0;" width="6" x="15" y="184.5508"/><text fill="#000000" font-family="sans-serif" font-size="11" lengthAdjust="spacing" textLength="107" x="27" y="191.1855">PrivateMethod() : int</text><rect fill="#F24D5C" height="6" style="stroke:#C82930;stroke-width:1.0;" width="6" x="15" y="197.5059"/><text fill="#000000" font-family="sans-serif" font-size="11" lengthAdjust="spacing" text-decoration="underline" textLength="136" x="27" y="204.1406">StaticPrivateMethod() : int</text><!--MD5=[901c516d3029fa279355aef5fba26233]
@startuml
class Key2 {
    + {static} StaticPublicField : int = 0
    + PublicField : int = 0
    # {static} StaticProtectedField : int = 0
    # ProtectedField : int = 0
    - {static} _staticPrivateField : int = 0
    - _privateField : int = 0
    + PublicMethod() : int
    + {static} StaticPublicMethod() : int
    # {static} StaticProtectedMethod() : int
    # ProtectedMethod() : int
    - PrivateMethod() : int
    - {static} StaticPrivateMethod() : int
}
@enduml

PlantUML version 1.2021.2(Sun Mar 07 11:10:27 GMT 2021)
(GPL source distribution)
Java Runtime: OpenJDK Runtime Environment
JVM: OpenJDK 64-Bit Server VM
Default Encoding: UTF-8
Language: en
Country: GB
--></g></svg>