<?xml version="1.0" encoding="UTF-8" standalone="no"?><svg xmlns="http://www.w3.org/2000/svg" xmlns:xlink="http://www.w3.org/1999/xlink" contentScriptType="application/ecmascript" contentStyleType="text/css" height="235px" preserveAspectRatio="none" style="width:183px;height:235px;" version="1.1" viewBox="0 0 183 235" width="183px" zoomAndPan="magnify"><defs><filter height="300%" id="f19d5ambta9ia3" width="300%" x="-1" y="-1"><feGaussianBlur result="blurOut" stdDeviation="2.0"/><feColorMatrix in="blurOut" result="blurOut2" type="matrix" values="0 0 0 0 0 0 0 0 0 0 0 0 0 0 0 0 0 0 .4 0"/><feOffset dx="4.0" dy="4.0" in="blurOut2" result="blurOut3"/><feBlend in="SourceGraphic" in2="blurOut3" mode="normal"/></filter></defs><g><!--MD5=[3128f07fffe0068159d422a4b1916c6e]
class Key2--><rect codeLine="1" fill="#FEFECE" filter="url(#f19d5ambta9ia3)" height="214.0313" id="Key2" style="stroke:#A80036;stroke-width:1.5;" width="162" x="7" y="7"/><ellipse cx="70.25" cy="23" fill="#ADD1B2" rx="11" ry="11" style="stroke:#A80036;stroke-width:1.0;"/><path d="M73.0156,18.875 Q73.1719,18.6563 73.3594,18.5469 Q73.5469,18.4375 73.7656,18.4375 Q74.1406,18.4375 74.375,18.7031 Q74.6094,18.9531 74.6094,19.5625 L74.6094,21.0156 Q74.6094,21.625 74.375,21.8906 Q74.1406,22.1563 73.7656,22.1563 Q73.4219,22.1563 73.2188,21.9531 Q73.0156,21.7656 72.9063,21.25 Q72.8594,20.8906 72.6719,20.7031 Q72.3438,20.3281 71.7344,20.1094 Q71.125,19.8906 70.5,19.8906 Q69.7344,19.8906 69.0938,20.2188 Q68.4688,20.5469 67.9688,21.2969 Q67.4844,22.0469 67.4844,23.0781 L67.4844,24.1719 Q67.4844,25.4063 68.375,26.2344 Q69.2656,27.0469 70.8594,27.0469 Q71.7969,27.0469 72.4531,26.7969 Q72.8438,26.6406 73.2656,26.2031 Q73.5313,25.9375 73.6719,25.8594 Q73.8281,25.7813 74.0313,25.7813 Q74.3594,25.7813 74.6094,26.0469 Q74.875,26.2969 74.875,26.6406 Q74.875,26.9844 74.5313,27.3906 Q74.0313,27.9688 73.2344,28.2969 Q72.1563,28.75 70.8594,28.75 Q69.3438,28.75 68.1406,28.125 Q67.1563,27.625 66.4688,26.5625 Q65.7813,25.4844 65.7813,24.2031 L65.7813,23.0469 Q65.7813,21.7188 66.3906,20.5781 Q67.0156,19.4219 68.1094,18.8125 Q69.2031,18.1875 70.4375,18.1875 Q71.1719,18.1875 71.8125,18.3594 Q72.4688,18.5156 73.0156,18.875 Z " fill="#000000"/><text fill="#000000" font-family="sans-serif" font-size="12" lengthAdjust="spacing" textLength="27" x="90.75" y="27.9102">Key2</text><line style="stroke:#A80036;stroke-width:1.5;" x1="8" x2="168" y1="39" y2="39"/><ellipse cx="18" cy="50" rx="3" ry="3" style="stroke:#038048;stroke-width:1.0;fill:none;"/><text fill="#000000" font-family="sans-serif" font-size="11" lengthAdjust="spacing" text-decoration="underline" textLength="115" x="27" y="54.4189">StaticPublicField : int = 0</text><ellipse cx="18" cy="63.8359" rx="3" ry="3" style="stroke:#038048;stroke-width:1.0;fill:none;"/><text fill="#000000" font-family="sans-serif" font-size="11" lengthAdjust="spacing" textLength="88" x="27" y="68.2549">PublicField : int = 0</text><polygon fill="none" points="18,72.6719,22,76.6719,18,80.6719,14,76.6719" style="stroke:#B38D22;stroke-width:1.0;"/><text fill="#000000" font-family="sans-serif" font-size="11" lengthAdjust="spacing" text-decoration="underline" textLength="133" x="27" y="82.0908">StaticProtectedField : int = 0</text><polygon fill="none" points="18,86.5078,22,90.5078,18,94.5078,14,90.5078" style="stroke:#B38D22;stroke-width:1.0;"/><text fill="#000000" font-family="sans-serif" font-size="11" lengthAdjust="spacing" textLength="106" x="27" y="95.9268">ProtectedField : int = 0</text><rect fill="none" height="6" style="stroke:#C82930;stroke-width:1.0;" width="6" x="15" y="102.3438"/><text fill="#000000" font-family="sans-serif" font-size="11" lengthAdjust="spacing" text-decoration="underline" textLength="125" x="27" y="109.7627">_staticPrivateField : int = 0</text><rect fill="none" height="6" style="stroke:#C82930;stroke-width:1.0;" width="6" x="15" y="116.1797"/><text fill="#000000" font-family="sans-serif" font-size="11" lengthAdjust="spacing" textLength="99" x="27" y="123.5986">_privateField : int = 0</text><line style="stroke:#A80036;stroke-width:1.5;" x1="8" x2="168" y1="130.0156" y2="130.0156"/><ellipse cx="18" cy="141.0156" fill="#84BE84" rx="3" ry="3" style="stroke:#038048;stroke-width:1.0;"/><text fill="#000000" font-family="sans-serif" font-size="11" lengthAdjust="spacing" textLength="91" x="27" y="145.4346">PublicMethod() : int</text><ellipse cx="18" cy="154.8516" fill="#84BE84" rx="3" ry="3" style="stroke:#038048;stroke-width:1.0;"/><text fill="#000000" font-family="sans-serif" font-size="11" lengthAdjust="spacing" text-decoration="underline" textLength="118" x="27" y="159.2705">StaticPublicMethod() : int</text><polygon fill="#FFFF44" points="18,163.6875,22,167.6875,18,171.6875,14,167.6875" style="stroke:#B38D22;stroke-width:1.0;"/><text fill="#000000" font-family="sans-serif" font-size="11" lengthAdjust="spacing" text-decoration="underline" textLength="136" x="27" y="173.1064">StaticProtectedMethod() : int</text><polygon fill="#FFFF44" points="18,177.5234,22,181.5234,18,185.5234,14,181.5234" style="stroke:#B38D22;stroke-width:1.0;"/><text fill="#000000" font-family="sans-serif" font-size="11" lengthAdjust="spacing" textLength="109" x="27" y="186.9424">ProtectedMethod() : int</text><rect fill="#F24D5C" height="6" style="stroke:#C82930;stroke-width:1.0;" width="6" x="15" y="193.3594"/><text fill="#000000" font-family="sans-serif" font-size="11" lengthAdjust="spacing" textLength="96" x="27" y="200.7783">PrivateMethod() : int</text><rect fill="#F24D5C" height="6" style="stroke:#C82930;stroke-width:1.0;" width="6" x="15" y="207.1953"/><text fill="#000000" font-family="sans-serif" font-size="11" lengthAdjust="spacing" text-decoration="underline" textLength="123" x="27" y="214.6143">StaticPrivateMethod() : int</text><!--MD5=[901c516d3029fa279355aef5fba26233]
@startuml
class Key2 {
    + {static} StaticPublicField : int = 0
    + PublicField : int = 0
    # {static} StaticProtectedField : int = 0
    # ProtectedField : int = 0
    - {static} _staticPrivateField : int = 0
    - _privateField : int = 0
    + PublicMethod() : int
    + {static} StaticPublicMethod() : int
    # {static} StaticProtectedMethod() : int
    # ProtectedMethod() : int
    - PrivateMethod() : int
    - {static} StaticPrivateMethod() : int
}
@enduml

PlantUML version 1.2021.2(Sun Mar 07 11:10:27 GMT 2021)
(GPL source distribution)
Java Runtime: OpenJDK Runtime Environment
JVM: OpenJDK 64-Bit Server VM
Default Encoding: UTF-8
Language: en
Country: GB
--></g></svg>