<?xml version="1.0" encoding="UTF-8" standalone="no"?><svg xmlns="http://www.w3.org/2000/svg" xmlns:xlink="http://www.w3.org/1999/xlink" contentScriptType="application/ecmascript" contentStyleType="text/css" height="172px" preserveAspectRatio="none" style="width:188px;height:172px;" version="1.1" viewBox="0 0 188 172" width="188px" zoomAndPan="magnify"><defs><filter height="300%" id="fuo6uiw919md1" width="300%" x="-1" y="-1"><feGaussianBlur result="blurOut" stdDeviation="2.0"/><feColorMatrix in="blurOut" result="blurOut2" type="matrix" values="0 0 0 0 0 0 0 0 0 0 0 0 0 0 0 0 0 0 .4 0"/><feOffset dx="4.0" dy="4.0" in="blurOut2" result="blurOut3"/><feBlend in="SourceGraphic" in2="blurOut3" mode="normal"/></filter></defs><g><!--MD5=[2086e18d236f9616263f91fe5276f8cf]
class Key--><rect codeLine="1" fill="#FEFECE" filter="url(#fuo6uiw919md1)" height="151.6406" id="Key" style="stroke:#A80036;stroke-width:1.5;" width="167" x="7" y="7"/><ellipse cx="75.75" cy="23" fill="#ADD1B2" rx="11" ry="11" style="stroke:#A80036;stroke-width:1.0;"/><path d="M78.2231,29.1431 Q77.6421,29.4419 77.0029,29.5913 Q76.3638,29.7407 75.6582,29.7407 Q73.1514,29.7407 71.8315,28.0889 Q70.5117,26.437 70.5117,23.3159 Q70.5117,20.1865 71.8315,18.5347 Q73.1514,16.8828 75.6582,16.8828 Q76.3638,16.8828 77.0112,17.0322 Q77.6587,17.1816 78.2231,17.4805 L78.2231,20.2031 Q77.5923,19.6221 76.9988,19.3523 Q76.4053,19.0825 75.7744,19.0825 Q74.4297,19.0825 73.7449,20.1492 Q73.0601,21.2158 73.0601,23.3159 Q73.0601,25.4077 73.7449,26.4744 Q74.4297,27.541 75.7744,27.541 Q76.4053,27.541 76.9988,27.2712 Q77.5923,27.0015 78.2231,26.4204 Z " fill="#000000"/><text fill="#000000" font-family="sans-serif" font-size="12" lengthAdjust="spacing" textLength="21" x="96.25" y="27.5352">Key</text><line style="stroke:#A80036;stroke-width:1.5;" x1="8" x2="173" y1="39" y2="39"/><ellipse cx="18" cy="50" rx="3" ry="3" style="stroke:#038048;stroke-width:1.0;fill:none;"/><text fill="#000000" font-family="sans-serif" font-size="11" lengthAdjust="spacing" text-decoration="underline" textLength="131" x="27" y="53.6348">StaticPublicField : int = 0</text><ellipse cx="18" cy="62.9551" rx="3" ry="3" style="stroke:#038048;stroke-width:1.0;fill:none;"/><text fill="#000000" font-family="sans-serif" font-size="11" lengthAdjust="spacing" textLength="102" x="27" y="66.5898">PublicField : int = 0</text><rect fill="none" height="6" style="stroke:#C82930;stroke-width:1.0;" width="6" x="15" y="72.9102"/><text fill="#000000" font-family="sans-serif" font-size="11" lengthAdjust="spacing" text-decoration="underline" textLength="141" x="27" y="79.5449">_staticPrivateField : int = 0</text><rect fill="none" height="6" style="stroke:#C82930;stroke-width:1.0;" width="6" x="15" y="85.8652"/><text fill="#000000" font-family="sans-serif" font-size="11" lengthAdjust="spacing" textLength="113" x="27" y="92.5">_privateField : int = 0</text><line style="stroke:#A80036;stroke-width:1.5;" x1="8" x2="173" y1="98.8203" y2="98.8203"/><ellipse cx="18" cy="109.8203" fill="#84BE84" rx="3" ry="3" style="stroke:#038048;stroke-width:1.0;"/><text fill="#000000" font-family="sans-serif" font-size="11" lengthAdjust="spacing" textLength="103" x="27" y="113.4551">PublicMethod() : int</text><ellipse cx="18" cy="122.7754" fill="#84BE84" rx="3" ry="3" style="stroke:#038048;stroke-width:1.0;"/><text fill="#000000" font-family="sans-serif" font-size="11" lengthAdjust="spacing" text-decoration="underline" textLength="132" x="27" y="126.4102">StaticPublicMethod() : int</text><rect fill="#F24D5C" height="6" style="stroke:#C82930;stroke-width:1.0;" width="6" x="15" y="132.7305"/><text fill="#000000" font-family="sans-serif" font-size="11" lengthAdjust="spacing" textLength="107" x="27" y="139.3652">PrivateMethod() : int</text><rect fill="#F24D5C" height="6" style="stroke:#C82930;stroke-width:1.0;" width="6" x="15" y="145.6855"/><text fill="#000000" font-family="sans-serif" font-size="11" lengthAdjust="spacing" text-decoration="underline" textLength="136" x="27" y="152.3203">StaticPrivateMethod() : int</text><!--MD5=[47fa8a08f1b85aea131e879cf34fd673]
@startuml
class Key {
    + {static} StaticPublicField : int = 0
    + PublicField : int = 0
    - {static} _staticPrivateField : int = 0
    - _privateField : int = 0
    + PublicMethod() : int
    + {static} StaticPublicMethod() : int
    - PrivateMethod() : int
    - {static} StaticPrivateMethod() : int
}
@enduml

PlantUML version 1.2021.2(Sun Mar 07 11:10:27 GMT 2021)
(GPL source distribution)
Java Runtime: OpenJDK Runtime Environment
JVM: OpenJDK 64-Bit Server VM
Default Encoding: UTF-8
Language: en
Country: GB
--></g></svg>