<?xml version="1.0" encoding="UTF-8" standalone="no"?><svg xmlns="http://www.w3.org/2000/svg" xmlns:xlink="http://www.w3.org/1999/xlink" contentScriptType="application/ecmascript" contentStyleType="text/css" height="110px" preserveAspectRatio="none" style="width:406px;height:110px;" version="1.1" viewBox="0 0 406 110" width="406px" zoomAndPan="magnify"><defs><filter height="300%" id="fbtx41w46ubpn" width="300%" x="-1" y="-1"><feGaussianBlur result="blurOut" stdDeviation="2.0"/><feColorMatrix in="blurOut" result="blurOut2" type="matrix" values="0 0 0 0 0 0 0 0 0 0 0 0 0 0 0 0 0 0 .4 0"/><feOffset dx="4.0" dy="4.0" in="blurOut2" result="blurOut3"/><feBlend in="SourceGraphic" in2="blurOut3" mode="normal"/></filter></defs><g><!--MD5=[5184a739a6dd3b46833c3b99d27a1540]
class EncapsulateFieldBefore--><rect codeLine="1" fill="#FEFECE" filter="url(#fbtx41w46ubpn)" height="75.6719" id="EncapsulateFieldBefore" style="stroke:#A80036;stroke-width:1.5;" width="164" x="7" y="14"/><ellipse cx="22" cy="30" fill="#ADD1B2" rx="11" ry="11" style="stroke:#A80036;stroke-width:1.0;"/><path d="M24.7656,25.875 Q24.9219,25.6563 25.1094,25.5469 Q25.2969,25.4375 25.5156,25.4375 Q25.8906,25.4375 26.125,25.7031 Q26.3594,25.9531 26.3594,26.5625 L26.3594,28.0156 Q26.3594,28.625 26.125,28.8906 Q25.8906,29.1563 25.5156,29.1563 Q25.1719,29.1563 24.9688,28.9531 Q24.7656,28.7656 24.6563,28.25 Q24.6094,27.8906 24.4219,27.7031 Q24.0938,27.3281 23.4844,27.1094 Q22.875,26.8906 22.25,26.8906 Q21.4844,26.8906 20.8438,27.2188 Q20.2188,27.5469 19.7188,28.2969 Q19.2344,29.0469 19.2344,30.0781 L19.2344,31.1719 Q19.2344,32.4063 20.125,33.2344 Q21.0156,34.0469 22.6094,34.0469 Q23.5469,34.0469 24.2031,33.7969 Q24.5938,33.6406 25.0156,33.2031 Q25.2813,32.9375 25.4219,32.8594 Q25.5781,32.7813 25.7813,32.7813 Q26.1094,32.7813 26.3594,33.0469 Q26.625,33.2969 26.625,33.6406 Q26.625,33.9844 26.2813,34.3906 Q25.7813,34.9688 24.9844,35.2969 Q23.9063,35.75 22.6094,35.75 Q21.0938,35.75 19.8906,35.125 Q18.9063,34.625 18.2188,33.5625 Q17.5313,32.4844 17.5313,31.2031 L17.5313,30.0469 Q17.5313,28.7188 18.1406,27.5781 Q18.7656,26.4219 19.8594,25.8125 Q20.9531,25.1875 22.1875,25.1875 Q22.9219,25.1875 23.5625,25.3594 Q24.2188,25.5156 24.7656,25.875 Z " fill="#000000"/><text fill="#000000" font-family="sans-serif" font-size="12" lengthAdjust="spacing" textLength="132" x="36" y="34.9102">EncapsulateFieldBefore</text><line style="stroke:#A80036;stroke-width:1.5;" x1="8" x2="170" y1="46" y2="46"/><rect fill="none" height="6" style="stroke:#C82930;stroke-width:1.0;" width="6" x="15" y="54"/><text fill="#000000" font-family="sans-serif" font-size="11" lengthAdjust="spacing" textLength="55" x="27" y="61.4189">_thing1 : int</text><rect fill="none" height="6" style="stroke:#C82930;stroke-width:1.0;" width="6" x="15" y="67.8359"/><text fill="#000000" font-family="sans-serif" font-size="11" lengthAdjust="spacing" textLength="55" x="27" y="75.2549">_thing2 : int</text><line style="stroke:#A80036;stroke-width:1.5;" x1="8" x2="170" y1="81.6719" y2="81.6719"/><!--MD5=[645aca5365f45e9a8fce4c47d6f52b45]
class EncapsulateFieldAfter--><rect codeLine="5" fill="#FEFECE" filter="url(#fbtx41w46ubpn)" height="89.5078" id="EncapsulateFieldAfter" style="stroke:#A80036;stroke-width:1.5;" width="186" x="206" y="7"/><ellipse cx="236.3" cy="23" fill="#ADD1B2" rx="11" ry="11" style="stroke:#A80036;stroke-width:1.0;"/><path d="M239.0656,18.875 Q239.2219,18.6563 239.4094,18.5469 Q239.5969,18.4375 239.8156,18.4375 Q240.1906,18.4375 240.425,18.7031 Q240.6594,18.9531 240.6594,19.5625 L240.6594,21.0156 Q240.6594,21.625 240.425,21.8906 Q240.1906,22.1563 239.8156,22.1563 Q239.4719,22.1563 239.2688,21.9531 Q239.0656,21.7656 238.9563,21.25 Q238.9094,20.8906 238.7219,20.7031 Q238.3938,20.3281 237.7844,20.1094 Q237.175,19.8906 236.55,19.8906 Q235.7844,19.8906 235.1438,20.2188 Q234.5188,20.5469 234.0188,21.2969 Q233.5344,22.0469 233.5344,23.0781 L233.5344,24.1719 Q233.5344,25.4063 234.425,26.2344 Q235.3156,27.0469 236.9094,27.0469 Q237.8469,27.0469 238.5031,26.7969 Q238.8938,26.6406 239.3156,26.2031 Q239.5813,25.9375 239.7219,25.8594 Q239.8781,25.7813 240.0813,25.7813 Q240.4094,25.7813 240.6594,26.0469 Q240.925,26.2969 240.925,26.6406 Q240.925,26.9844 240.5813,27.3906 Q240.0813,27.9688 239.2844,28.2969 Q238.2063,28.75 236.9094,28.75 Q235.3938,28.75 234.1906,28.125 Q233.2063,27.625 232.5188,26.5625 Q231.8313,25.4844 231.8313,24.2031 L231.8313,23.0469 Q231.8313,21.7188 232.4406,20.5781 Q233.0656,19.4219 234.1594,18.8125 Q235.2531,18.1875 236.4875,18.1875 Q237.2219,18.1875 237.8625,18.3594 Q238.5188,18.5156 239.0656,18.875 Z " fill="#000000"/><text fill="#000000" font-family="sans-serif" font-size="12" lengthAdjust="spacing" textLength="120" x="253.7" y="27.9102">EncapsulateFieldAfter</text><line style="stroke:#A80036;stroke-width:1.5;" x1="207" x2="391" y1="39" y2="39"/><ellipse cx="217" cy="50" rx="3" ry="3" style="stroke:#038048;stroke-width:1.0;fill:none;"/><text fill="#000000" font-family="sans-serif" font-size="11" lengthAdjust="spacing" textLength="160" x="226" y="54.4189">Thing1AsAutoProperty : int «get»</text><ellipse cx="217" cy="63.8359" rx="3" ry="3" style="stroke:#038048;stroke-width:1.0;fill:none;"/><text fill="#000000" font-family="sans-serif" font-size="11" lengthAdjust="spacing" textLength="112" x="226" y="68.2549">Thing2 : int «get» «set»</text><rect fill="none" height="6" style="stroke:#C82930;stroke-width:1.0;" width="6" x="214" y="74.6719"/><text fill="#000000" font-family="sans-serif" font-size="11" lengthAdjust="spacing" textLength="55" x="226" y="82.0908">_thing2 : int</text><line style="stroke:#A80036;stroke-width:1.5;" x1="207" x2="391" y1="88.5078" y2="88.5078"/><!--MD5=[5e4929e29e177e7e0eedfc850739a116]
@startuml
class EncapsulateFieldBefore {
    - _thing1 : int
    - _thing2 : int
}
class EncapsulateFieldAfter {
    + Thing1AsAutoProperty : int <<get>>
    + Thing2 : int <<get>> <<set>>
    - _thing2 : int
}
@enduml

PlantUML version 1.2021.2(Sun Mar 07 11:10:27 GMT 2021)
(GPL source distribution)
Java Runtime: OpenJDK Runtime Environment
JVM: OpenJDK 64-Bit Server VM
Default Encoding: UTF-8
Language: en
Country: GB
--></g></svg>