<?xml version="1.0" encoding="UTF-8" standalone="no"?><svg xmlns="http://www.w3.org/2000/svg" xmlns:xlink="http://www.w3.org/1999/xlink" contentScriptType="application/ecmascript" contentStyleType="text/css" height="124px" preserveAspectRatio="none" style="width:309px;height:124px;" version="1.1" viewBox="0 0 309 124" width="309px" zoomAndPan="magnify"><defs><filter height="300%" id="fn37ajo7doqyj" width="300%" x="-1" y="-1"><feGaussianBlur result="blurOut" stdDeviation="2.0"/><feColorMatrix in="blurOut" result="blurOut2" type="matrix" values="0 0 0 0 0 0 0 0 0 0 0 0 0 0 0 0 0 0 .4 0"/><feOffset dx="4.0" dy="4.0" in="blurOut2" result="blurOut3"/><feBlend in="SourceGraphic" in2="blurOut3" mode="normal"/></filter></defs><g><!--MD5=[43bf33ce01dcdce8783fd73147690dfa]
class ExtractFieldBefore--><rect codeLine="1" fill="#FEFECE" filter="url(#fn37ajo7doqyj)" height="61.8359" id="ExtractFieldBefore" style="stroke:#A80036;stroke-width:1.5;" width="131" x="7" y="27.5"/><ellipse cx="22" cy="43.5" fill="#ADD1B2" rx="11" ry="11" style="stroke:#A80036;stroke-width:1.0;"/><path d="M24.7656,39.375 Q24.9219,39.1563 25.1094,39.0469 Q25.2969,38.9375 25.5156,38.9375 Q25.8906,38.9375 26.125,39.2031 Q26.3594,39.4531 26.3594,40.0625 L26.3594,41.5156 Q26.3594,42.125 26.125,42.3906 Q25.8906,42.6563 25.5156,42.6563 Q25.1719,42.6563 24.9688,42.4531 Q24.7656,42.2656 24.6563,41.75 Q24.6094,41.3906 24.4219,41.2031 Q24.0938,40.8281 23.4844,40.6094 Q22.875,40.3906 22.25,40.3906 Q21.4844,40.3906 20.8438,40.7188 Q20.2188,41.0469 19.7188,41.7969 Q19.2344,42.5469 19.2344,43.5781 L19.2344,44.6719 Q19.2344,45.9063 20.125,46.7344 Q21.0156,47.5469 22.6094,47.5469 Q23.5469,47.5469 24.2031,47.2969 Q24.5938,47.1406 25.0156,46.7031 Q25.2813,46.4375 25.4219,46.3594 Q25.5781,46.2813 25.7813,46.2813 Q26.1094,46.2813 26.3594,46.5469 Q26.625,46.7969 26.625,47.1406 Q26.625,47.4844 26.2813,47.8906 Q25.7813,48.4688 24.9844,48.7969 Q23.9063,49.25 22.6094,49.25 Q21.0938,49.25 19.8906,48.625 Q18.9063,48.125 18.2188,47.0625 Q17.5313,45.9844 17.5313,44.7031 L17.5313,43.5469 Q17.5313,42.2188 18.1406,41.0781 Q18.7656,39.9219 19.8594,39.3125 Q20.9531,38.6875 22.1875,38.6875 Q22.9219,38.6875 23.5625,38.8594 Q24.2188,39.0156 24.7656,39.375 Z " fill="#000000"/><text fill="#000000" font-family="sans-serif" font-size="12" lengthAdjust="spacing" textLength="99" x="36" y="48.4102">ExtractFieldBefore</text><line style="stroke:#A80036;stroke-width:1.5;" x1="8" x2="137" y1="59.5" y2="59.5"/><line style="stroke:#A80036;stroke-width:1.5;" x1="8" x2="137" y1="67.5" y2="67.5"/><ellipse cx="18" cy="78.5" fill="#84BE84" rx="3" ry="3" style="stroke:#038048;stroke-width:1.0;"/><text fill="#000000" font-family="sans-serif" font-size="11" lengthAdjust="spacing" textLength="96" x="27" y="82.9189">LongMethod() : void</text><!--MD5=[ec1451e7ee6d30946c51b424ac4c5e64]
class ExtractFieldAfter--><rect codeLine="4" fill="#FEFECE" filter="url(#fn37ajo7doqyj)" height="103.3438" id="ExtractFieldAfter" style="stroke:#A80036;stroke-width:1.5;" width="122" x="173.5" y="7"/><ellipse cx="189.85" cy="23" fill="#ADD1B2" rx="11" ry="11" style="stroke:#A80036;stroke-width:1.0;"/><path d="M192.6156,18.875 Q192.7719,18.6563 192.9594,18.5469 Q193.1469,18.4375 193.3656,18.4375 Q193.7406,18.4375 193.975,18.7031 Q194.2094,18.9531 194.2094,19.5625 L194.2094,21.0156 Q194.2094,21.625 193.975,21.8906 Q193.7406,22.1563 193.3656,22.1563 Q193.0219,22.1563 192.8188,21.9531 Q192.6156,21.7656 192.5063,21.25 Q192.4594,20.8906 192.2719,20.7031 Q191.9438,20.3281 191.3344,20.1094 Q190.725,19.8906 190.1,19.8906 Q189.3344,19.8906 188.6938,20.2188 Q188.0688,20.5469 187.5688,21.2969 Q187.0844,22.0469 187.0844,23.0781 L187.0844,24.1719 Q187.0844,25.4063 187.975,26.2344 Q188.8656,27.0469 190.4594,27.0469 Q191.3969,27.0469 192.0531,26.7969 Q192.4438,26.6406 192.8656,26.2031 Q193.1313,25.9375 193.2719,25.8594 Q193.4281,25.7813 193.6313,25.7813 Q193.9594,25.7813 194.2094,26.0469 Q194.475,26.2969 194.475,26.6406 Q194.475,26.9844 194.1313,27.3906 Q193.6313,27.9688 192.8344,28.2969 Q191.7563,28.75 190.4594,28.75 Q188.9438,28.75 187.7406,28.125 Q186.7563,27.625 186.0688,26.5625 Q185.3813,25.4844 185.3813,24.2031 L185.3813,23.0469 Q185.3813,21.7188 185.9906,20.5781 Q186.6156,19.4219 187.7094,18.8125 Q188.8031,18.1875 190.0375,18.1875 Q190.7719,18.1875 191.4125,18.3594 Q192.0688,18.5156 192.6156,18.875 Z " fill="#000000"/><text fill="#000000" font-family="sans-serif" font-size="12" lengthAdjust="spacing" textLength="87" x="204.15" y="27.9102">ExtractFieldAfter</text><line style="stroke:#A80036;stroke-width:1.5;" x1="174.5" x2="294.5" y1="39" y2="39"/><rect fill="none" height="6" style="stroke:#C82930;stroke-width:1.0;" width="6" x="181.5" y="47"/><text fill="#000000" font-family="sans-serif" font-size="11" lengthAdjust="spacing" textLength="55" x="193.5" y="54.4189">_thing1 : int</text><rect fill="none" height="6" style="stroke:#C82930;stroke-width:1.0;" width="6" x="181.5" y="60.8359"/><text fill="#000000" font-family="sans-serif" font-size="11" lengthAdjust="spacing" textLength="55" x="193.5" y="68.2549">_thing2 : int</text><rect fill="none" height="6" style="stroke:#C82930;stroke-width:1.0;" width="6" x="181.5" y="74.6719"/><text fill="#000000" font-family="sans-serif" font-size="11" lengthAdjust="spacing" textLength="55" x="193.5" y="82.0908">_thing3 : int</text><line style="stroke:#A80036;stroke-width:1.5;" x1="174.5" x2="294.5" y1="88.5078" y2="88.5078"/><ellipse cx="184.5" cy="99.5078" fill="#84BE84" rx="3" ry="3" style="stroke:#038048;stroke-width:1.0;"/><text fill="#000000" font-family="sans-serif" font-size="11" lengthAdjust="spacing" textLength="96" x="193.5" y="103.9268">LongMethod() : void</text><!--MD5=[80b02176ac4fa17b7a1561a8eef20450]
@startuml
class ExtractFieldBefore {
    + LongMethod() : void
}
class ExtractFieldAfter {
    - _thing1 : int
    - _thing2 : int
    - _thing3 : int
    + LongMethod() : void
}
@enduml

PlantUML version 1.2021.2(Sun Mar 07 11:10:27 GMT 2021)
(GPL source distribution)
Java Runtime: OpenJDK Runtime Environment
JVM: OpenJDK 64-Bit Server VM
Default Encoding: UTF-8
Language: en
Country: GB
--></g></svg>