<?xml version="1.0" encoding="UTF-8" standalone="no"?><svg xmlns="http://www.w3.org/2000/svg" xmlns:xlink="http://www.w3.org/1999/xlink" contentScriptType="application/ecmascript" contentStyleType="text/css" height="124px" preserveAspectRatio="none" style="width:366px;height:124px;" version="1.1" viewBox="0 0 366 124" width="366px" zoomAndPan="magnify"><defs><filter height="300%" id="fw5547abkb4r9" width="300%" x="-1" y="-1"><feGaussianBlur result="blurOut" stdDeviation="2.0"/><feColorMatrix in="blurOut" result="blurOut2" type="matrix" values="0 0 0 0 0 0 0 0 0 0 0 0 0 0 0 0 0 0 .4 0"/><feOffset dx="4.0" dy="4.0" in="blurOut2" result="blurOut3"/><feBlend in="SourceGraphic" in2="blurOut3" mode="normal"/></filter></defs><g><!--MD5=[61966af508fdaabe07fafceda21baba4]
class ExtractFieldStaticBefore--><rect codeLine="1" fill="#FEFECE" filter="url(#fw5547abkb4r9)" height="61.8359" id="ExtractFieldStaticBefore" style="stroke:#A80036;stroke-width:1.5;" width="161" x="7" y="27.5"/><ellipse cx="22" cy="43.5" fill="#ADD1B2" rx="11" ry="11" style="stroke:#A80036;stroke-width:1.0;"/><path d="M24.7656,39.375 Q24.9219,39.1563 25.1094,39.0469 Q25.2969,38.9375 25.5156,38.9375 Q25.8906,38.9375 26.125,39.2031 Q26.3594,39.4531 26.3594,40.0625 L26.3594,41.5156 Q26.3594,42.125 26.125,42.3906 Q25.8906,42.6563 25.5156,42.6563 Q25.1719,42.6563 24.9688,42.4531 Q24.7656,42.2656 24.6563,41.75 Q24.6094,41.3906 24.4219,41.2031 Q24.0938,40.8281 23.4844,40.6094 Q22.875,40.3906 22.25,40.3906 Q21.4844,40.3906 20.8438,40.7188 Q20.2188,41.0469 19.7188,41.7969 Q19.2344,42.5469 19.2344,43.5781 L19.2344,44.6719 Q19.2344,45.9063 20.125,46.7344 Q21.0156,47.5469 22.6094,47.5469 Q23.5469,47.5469 24.2031,47.2969 Q24.5938,47.1406 25.0156,46.7031 Q25.2813,46.4375 25.4219,46.3594 Q25.5781,46.2813 25.7813,46.2813 Q26.1094,46.2813 26.3594,46.5469 Q26.625,46.7969 26.625,47.1406 Q26.625,47.4844 26.2813,47.8906 Q25.7813,48.4688 24.9844,48.7969 Q23.9063,49.25 22.6094,49.25 Q21.0938,49.25 19.8906,48.625 Q18.9063,48.125 18.2188,47.0625 Q17.5313,45.9844 17.5313,44.7031 L17.5313,43.5469 Q17.5313,42.2188 18.1406,41.0781 Q18.7656,39.9219 19.8594,39.3125 Q20.9531,38.6875 22.1875,38.6875 Q22.9219,38.6875 23.5625,38.8594 Q24.2188,39.0156 24.7656,39.375 Z " fill="#000000"/><text fill="#000000" font-family="sans-serif" font-size="12" lengthAdjust="spacing" textLength="129" x="36" y="48.4102">ExtractFieldStaticBefore</text><line style="stroke:#A80036;stroke-width:1.5;" x1="8" x2="167" y1="59.5" y2="59.5"/><line style="stroke:#A80036;stroke-width:1.5;" x1="8" x2="167" y1="67.5" y2="67.5"/><ellipse cx="18" cy="78.5" fill="#84BE84" rx="3" ry="3" style="stroke:#038048;stroke-width:1.0;"/><text fill="#000000" font-family="sans-serif" font-size="11" lengthAdjust="spacing" text-decoration="underline" textLength="96" x="27" y="82.9189">LongMethod() : void</text><!--MD5=[2deaf03986f57a3f79424dd182679a76]
class ExtractFieldStaticAfter--><rect codeLine="4" fill="#FEFECE" filter="url(#fw5547abkb4r9)" height="103.3438" id="ExtractFieldStaticAfter" style="stroke:#A80036;stroke-width:1.5;" width="149" x="203" y="7"/><ellipse cx="218" cy="23" fill="#ADD1B2" rx="11" ry="11" style="stroke:#A80036;stroke-width:1.0;"/><path d="M220.7656,18.875 Q220.9219,18.6563 221.1094,18.5469 Q221.2969,18.4375 221.5156,18.4375 Q221.8906,18.4375 222.125,18.7031 Q222.3594,18.9531 222.3594,19.5625 L222.3594,21.0156 Q222.3594,21.625 222.125,21.8906 Q221.8906,22.1563 221.5156,22.1563 Q221.1719,22.1563 220.9688,21.9531 Q220.7656,21.7656 220.6563,21.25 Q220.6094,20.8906 220.4219,20.7031 Q220.0938,20.3281 219.4844,20.1094 Q218.875,19.8906 218.25,19.8906 Q217.4844,19.8906 216.8438,20.2188 Q216.2188,20.5469 215.7188,21.2969 Q215.2344,22.0469 215.2344,23.0781 L215.2344,24.1719 Q215.2344,25.4063 216.125,26.2344 Q217.0156,27.0469 218.6094,27.0469 Q219.5469,27.0469 220.2031,26.7969 Q220.5938,26.6406 221.0156,26.2031 Q221.2813,25.9375 221.4219,25.8594 Q221.5781,25.7813 221.7813,25.7813 Q222.1094,25.7813 222.3594,26.0469 Q222.625,26.2969 222.625,26.6406 Q222.625,26.9844 222.2813,27.3906 Q221.7813,27.9688 220.9844,28.2969 Q219.9063,28.75 218.6094,28.75 Q217.0938,28.75 215.8906,28.125 Q214.9063,27.625 214.2188,26.5625 Q213.5313,25.4844 213.5313,24.2031 L213.5313,23.0469 Q213.5313,21.7188 214.1406,20.5781 Q214.7656,19.4219 215.8594,18.8125 Q216.9531,18.1875 218.1875,18.1875 Q218.9219,18.1875 219.5625,18.3594 Q220.2188,18.5156 220.7656,18.875 Z " fill="#000000"/><text fill="#000000" font-family="sans-serif" font-size="12" lengthAdjust="spacing" textLength="117" x="232" y="27.9102">ExtractFieldStaticAfter</text><line style="stroke:#A80036;stroke-width:1.5;" x1="204" x2="351" y1="39" y2="39"/><rect fill="none" height="6" style="stroke:#C82930;stroke-width:1.0;" width="6" x="211" y="47"/><text fill="#000000" font-family="sans-serif" font-size="11" lengthAdjust="spacing" text-decoration="underline" textLength="55" x="223" y="54.4189">_thing1 : int</text><rect fill="none" height="6" style="stroke:#C82930;stroke-width:1.0;" width="6" x="211" y="60.8359"/><text fill="#000000" font-family="sans-serif" font-size="11" lengthAdjust="spacing" text-decoration="underline" textLength="55" x="223" y="68.2549">_thing2 : int</text><rect fill="none" height="6" style="stroke:#C82930;stroke-width:1.0;" width="6" x="211" y="74.6719"/><text fill="#000000" font-family="sans-serif" font-size="11" lengthAdjust="spacing" text-decoration="underline" textLength="55" x="223" y="82.0908">_thing3 : int</text><line style="stroke:#A80036;stroke-width:1.5;" x1="204" x2="351" y1="88.5078" y2="88.5078"/><ellipse cx="214" cy="99.5078" fill="#84BE84" rx="3" ry="3" style="stroke:#038048;stroke-width:1.0;"/><text fill="#000000" font-family="sans-serif" font-size="11" lengthAdjust="spacing" text-decoration="underline" textLength="96" x="223" y="103.9268">LongMethod() : void</text><!--MD5=[dbc77ae6909d5845e9a174e7ed00289e]
@startuml
class ExtractFieldStaticBefore {
    + {static} LongMethod() : void
}
class ExtractFieldStaticAfter {
    - {static} _thing1 : int
    - {static} _thing2 : int
    - {static} _thing3 : int
    + {static} LongMethod() : void
}
@enduml

PlantUML version 1.2021.2(Sun Mar 07 11:10:27 GMT 2021)
(GPL source distribution)
Java Runtime: OpenJDK Runtime Environment
JVM: OpenJDK 64-Bit Server VM
Default Encoding: UTF-8
Language: en
Country: GB
--></g></svg>