<?xml version="1.0" encoding="UTF-8" standalone="no"?><svg xmlns="http://www.w3.org/2000/svg" xmlns:xlink="http://www.w3.org/1999/xlink" contentScriptType="application/ecmascript" contentStyleType="text/css" height="179px" preserveAspectRatio="none" style="width:172px;height:179px;" version="1.1" viewBox="0 0 172 179" width="172px" zoomAndPan="magnify"><defs><filter height="300%" id="fuo6uiw919md1" width="300%" x="-1" y="-1"><feGaussianBlur result="blurOut" stdDeviation="2.0"/><feColorMatrix in="blurOut" result="blurOut2" type="matrix" values="0 0 0 0 0 0 0 0 0 0 0 0 0 0 0 0 0 0 .4 0"/><feOffset dx="4.0" dy="4.0" in="blurOut2" result="blurOut3"/><feBlend in="SourceGraphic" in2="blurOut3" mode="normal"/></filter></defs><g><!--MD5=[2086e18d236f9616263f91fe5276f8cf]
class Key--><rect codeLine="1" fill="#FEFECE" filter="url(#fuo6uiw919md1)" height="158.6875" id="Key" style="stroke:#A80036;stroke-width:1.5;" width="151" x="7" y="7"/><ellipse cx="68.25" cy="23" fill="#ADD1B2" rx="11" ry="11" style="stroke:#A80036;stroke-width:1.0;"/><path d="M71.0156,18.875 Q71.1719,18.6563 71.3594,18.5469 Q71.5469,18.4375 71.7656,18.4375 Q72.1406,18.4375 72.375,18.7031 Q72.6094,18.9531 72.6094,19.5625 L72.6094,21.0156 Q72.6094,21.625 72.375,21.8906 Q72.1406,22.1563 71.7656,22.1563 Q71.4219,22.1563 71.2188,21.9531 Q71.0156,21.7656 70.9063,21.25 Q70.8594,20.8906 70.6719,20.7031 Q70.3438,20.3281 69.7344,20.1094 Q69.125,19.8906 68.5,19.8906 Q67.7344,19.8906 67.0938,20.2188 Q66.4688,20.5469 65.9688,21.2969 Q65.4844,22.0469 65.4844,23.0781 L65.4844,24.1719 Q65.4844,25.4063 66.375,26.2344 Q67.2656,27.0469 68.8594,27.0469 Q69.7969,27.0469 70.4531,26.7969 Q70.8438,26.6406 71.2656,26.2031 Q71.5313,25.9375 71.6719,25.8594 Q71.8281,25.7813 72.0313,25.7813 Q72.3594,25.7813 72.6094,26.0469 Q72.875,26.2969 72.875,26.6406 Q72.875,26.9844 72.5313,27.3906 Q72.0313,27.9688 71.2344,28.2969 Q70.1563,28.75 68.8594,28.75 Q67.3438,28.75 66.1406,28.125 Q65.1563,27.625 64.4688,26.5625 Q63.7813,25.4844 63.7813,24.2031 L63.7813,23.0469 Q63.7813,21.7188 64.3906,20.5781 Q65.0156,19.4219 66.1094,18.8125 Q67.2031,18.1875 68.4375,18.1875 Q69.1719,18.1875 69.8125,18.3594 Q70.4688,18.5156 71.0156,18.875 Z " fill="#000000"/><text fill="#000000" font-family="sans-serif" font-size="12" lengthAdjust="spacing" textLength="20" x="88.75" y="27.9102">Key</text><line style="stroke:#A80036;stroke-width:1.5;" x1="8" x2="157" y1="39" y2="39"/><ellipse cx="18" cy="50" rx="3" ry="3" style="stroke:#038048;stroke-width:1.0;fill:none;"/><text fill="#000000" font-family="sans-serif" font-size="11" lengthAdjust="spacing" text-decoration="underline" textLength="115" x="27" y="54.4189">StaticPublicField : int = 0</text><ellipse cx="18" cy="63.8359" rx="3" ry="3" style="stroke:#038048;stroke-width:1.0;fill:none;"/><text fill="#000000" font-family="sans-serif" font-size="11" lengthAdjust="spacing" textLength="88" x="27" y="68.2549">PublicField : int = 0</text><rect fill="none" height="6" style="stroke:#C82930;stroke-width:1.0;" width="6" x="15" y="74.6719"/><text fill="#000000" font-family="sans-serif" font-size="11" lengthAdjust="spacing" text-decoration="underline" textLength="125" x="27" y="82.0908">_staticPrivateField : int = 0</text><rect fill="none" height="6" style="stroke:#C82930;stroke-width:1.0;" width="6" x="15" y="88.5078"/><text fill="#000000" font-family="sans-serif" font-size="11" lengthAdjust="spacing" textLength="99" x="27" y="95.9268">_privateField : int = 0</text><line style="stroke:#A80036;stroke-width:1.5;" x1="8" x2="157" y1="102.3438" y2="102.3438"/><ellipse cx="18" cy="113.3438" fill="#84BE84" rx="3" ry="3" style="stroke:#038048;stroke-width:1.0;"/><text fill="#000000" font-family="sans-serif" font-size="11" lengthAdjust="spacing" textLength="91" x="27" y="117.7627">PublicMethod() : int</text><ellipse cx="18" cy="127.1797" fill="#84BE84" rx="3" ry="3" style="stroke:#038048;stroke-width:1.0;"/><text fill="#000000" font-family="sans-serif" font-size="11" lengthAdjust="spacing" text-decoration="underline" textLength="118" x="27" y="131.5986">StaticPublicMethod() : int</text><rect fill="#F24D5C" height="6" style="stroke:#C82930;stroke-width:1.0;" width="6" x="15" y="138.0156"/><text fill="#000000" font-family="sans-serif" font-size="11" lengthAdjust="spacing" textLength="96" x="27" y="145.4346">PrivateMethod() : int</text><rect fill="#F24D5C" height="6" style="stroke:#C82930;stroke-width:1.0;" width="6" x="15" y="151.8516"/><text fill="#000000" font-family="sans-serif" font-size="11" lengthAdjust="spacing" text-decoration="underline" textLength="123" x="27" y="159.2705">StaticPrivateMethod() : int</text><!--MD5=[47fa8a08f1b85aea131e879cf34fd673]
@startuml
class Key {
    + {static} StaticPublicField : int = 0
    + PublicField : int = 0
    - {static} _staticPrivateField : int = 0
    - _privateField : int = 0
    + PublicMethod() : int
    + {static} StaticPublicMethod() : int
    - PrivateMethod() : int
    - {static} StaticPrivateMethod() : int
}
@enduml

PlantUML version 1.2021.2(Sun Mar 07 11:10:27 GMT 2021)
(GPL source distribution)
Java Runtime: OpenJDK Runtime Environment
JVM: OpenJDK 64-Bit Server VM
Default Encoding: UTF-8
Language: en
Country: GB
--></g></svg>