<?xml version="1.0" encoding="UTF-8" standalone="no"?><svg xmlns="http://www.w3.org/2000/svg" xmlns:xlink="http://www.w3.org/1999/xlink" contentScriptType="application/ecmascript" contentStyleType="text/css" height="235px" preserveAspectRatio="none" style="width:183px;height:235px;" version="1.1" viewBox="0 0 183 235" width="183px" zoomAndPan="magnify"><defs><filter height="300%" id="fxk9fklweslxf" width="300%" x="-1" y="-1"><feGaussianBlur result="blurOut" stdDeviation="2.0"/><feColorMatrix in="blurOut" result="blurOut2" type="matrix" values="0 0 0 0 0 0 0 0 0 0 0 0 0 0 0 0 0 0 .4 0"/><feOffset dx="4.0" dy="4.0" in="blurOut2" result="blurOut3"/><feBlend in="SourceGraphic" in2="blurOut3" mode="normal"/></filter></defs><g><!--MD5=[2086e18d236f9616263f91fe5276f8cf]
class Key--><rect codeLine="1" fill="#FEFECE" filter="url(#fxk9fklweslxf)" height="214.0313" id="Key" style="stroke:#A80036;stroke-width:1.5;" width="162" x="7" y="7"/><ellipse cx="73.75" cy="23" fill="#ADD1B2" rx="11" ry="11" style="stroke:#A80036;stroke-width:1.0;"/><path d="M76.5156,18.875 Q76.6719,18.6563 76.8594,18.5469 Q77.0469,18.4375 77.2656,18.4375 Q77.6406,18.4375 77.875,18.7031 Q78.1094,18.9531 78.1094,19.5625 L78.1094,21.0156 Q78.1094,21.625 77.875,21.8906 Q77.6406,22.1563 77.2656,22.1563 Q76.9219,22.1563 76.7188,21.9531 Q76.5156,21.7656 76.4063,21.25 Q76.3594,20.8906 76.1719,20.7031 Q75.8438,20.3281 75.2344,20.1094 Q74.625,19.8906 74,19.8906 Q73.2344,19.8906 72.5938,20.2188 Q71.9688,20.5469 71.4688,21.2969 Q70.9844,22.0469 70.9844,23.0781 L70.9844,24.1719 Q70.9844,25.4063 71.875,26.2344 Q72.7656,27.0469 74.3594,27.0469 Q75.2969,27.0469 75.9531,26.7969 Q76.3438,26.6406 76.7656,26.2031 Q77.0313,25.9375 77.1719,25.8594 Q77.3281,25.7813 77.5313,25.7813 Q77.8594,25.7813 78.1094,26.0469 Q78.375,26.2969 78.375,26.6406 Q78.375,26.9844 78.0313,27.3906 Q77.5313,27.9688 76.7344,28.2969 Q75.6563,28.75 74.3594,28.75 Q72.8438,28.75 71.6406,28.125 Q70.6563,27.625 69.9688,26.5625 Q69.2813,25.4844 69.2813,24.2031 L69.2813,23.0469 Q69.2813,21.7188 69.8906,20.5781 Q70.5156,19.4219 71.6094,18.8125 Q72.7031,18.1875 73.9375,18.1875 Q74.6719,18.1875 75.3125,18.3594 Q75.9688,18.5156 76.5156,18.875 Z " fill="#000000"/><text fill="#000000" font-family="sans-serif" font-size="12" lengthAdjust="spacing" textLength="20" x="94.25" y="27.9102">Key</text><line style="stroke:#A80036;stroke-width:1.5;" x1="8" x2="168" y1="39" y2="39"/><ellipse cx="18" cy="50" rx="3" ry="3" style="stroke:#038048;stroke-width:1.0;fill:none;"/><text fill="#000000" font-family="sans-serif" font-size="11" lengthAdjust="spacing" text-decoration="underline" textLength="115" x="27" y="54.4189">StaticPublicField : int = 0</text><ellipse cx="18" cy="63.8359" rx="3" ry="3" style="stroke:#038048;stroke-width:1.0;fill:none;"/><text fill="#000000" font-family="sans-serif" font-size="11" lengthAdjust="spacing" textLength="88" x="27" y="68.2549">PublicField : int = 0</text><polygon fill="none" points="18,72.6719,22,76.6719,18,80.6719,14,76.6719" style="stroke:#B38D22;stroke-width:1.0;"/><text fill="#000000" font-family="sans-serif" font-size="11" lengthAdjust="spacing" text-decoration="underline" textLength="133" x="27" y="82.0908">StaticProtectedField : int = 0</text><polygon fill="none" points="18,86.5078,22,90.5078,18,94.5078,14,90.5078" style="stroke:#B38D22;stroke-width:1.0;"/><text fill="#000000" font-family="sans-serif" font-size="11" lengthAdjust="spacing" textLength="106" x="27" y="95.9268">ProtectedField : int = 0</text><rect fill="none" height="6" style="stroke:#C82930;stroke-width:1.0;" width="6" x="15" y="102.3438"/><text fill="#000000" font-family="sans-serif" font-size="11" lengthAdjust="spacing" text-decoration="underline" textLength="125" x="27" y="109.7627">_staticPrivateField : int = 0</text><rect fill="none" height="6" style="stroke:#C82930;stroke-width:1.0;" width="6" x="15" y="116.1797"/><text fill="#000000" font-family="sans-serif" font-size="11" lengthAdjust="spacing" textLength="99" x="27" y="123.5986">_privateField : int = 0</text><line style="stroke:#A80036;stroke-width:1.5;" x1="8" x2="168" y1="130.0156" y2="130.0156"/><ellipse cx="18" cy="141.0156" fill="#84BE84" rx="3" ry="3" style="stroke:#038048;stroke-width:1.0;"/><text fill="#000000" font-family="sans-serif" font-size="11" lengthAdjust="spacing" textLength="91" x="27" y="145.4346">PublicMethod() : int</text><ellipse cx="18" cy="154.8516" fill="#84BE84" rx="3" ry="3" style="stroke:#038048;stroke-width:1.0;"/><text fill="#000000" font-family="sans-serif" font-size="11" lengthAdjust="spacing" text-decoration="underline" textLength="118" x="27" y="159.2705">StaticPublicMethod() : int</text><polygon fill="#FFFF44" points="18,163.6875,22,167.6875,18,171.6875,14,167.6875" style="stroke:#B38D22;stroke-width:1.0;"/><text fill="#000000" font-family="sans-serif" font-size="11" lengthAdjust="spacing" text-decoration="underline" textLength="136" x="27" y="173.1064">StaticProtectedMethod() : int</text><polygon fill="#FFFF44" points="18,177.5234,22,181.5234,18,185.5234,14,181.5234" style="stroke:#B38D22;stroke-width:1.0;"/><text fill="#000000" font-family="sans-serif" font-size="11" lengthAdjust="spacing" textLength="109" x="27" y="186.9424">ProtectedMethod() : int</text><rect fill="#F24D5C" height="6" style="stroke:#C82930;stroke-width:1.0;" width="6" x="15" y="193.3594"/><text fill="#000000" font-family="sans-serif" font-size="11" lengthAdjust="spacing" textLength="96" x="27" y="200.7783">PrivateMethod() : int</text><rect fill="#F24D5C" height="6" style="stroke:#C82930;stroke-width:1.0;" width="6" x="15" y="207.1953"/><text fill="#000000" font-family="sans-serif" font-size="11" lengthAdjust="spacing" text-decoration="underline" textLength="123" x="27" y="214.6143">StaticPrivateMethod() : int</text><!--MD5=[484cb39fc82ed6593d01363408a32922]
@startuml
class Key {
    + {static} StaticPublicField : int = 0
    + PublicField : int = 0
    # {static} StaticProtectedField : int = 0
    # ProtectedField : int = 0
    - {static} _staticPrivateField : int = 0
    - _privateField : int = 0
    + PublicMethod() : int
    + {static} StaticPublicMethod() : int
    # {static} StaticProtectedMethod() : int
    # ProtectedMethod() : int
    - PrivateMethod() : int
    - {static} StaticPrivateMethod() : int
}
@enduml

PlantUML version 1.2021.2(Sun Mar 07 11:10:27 GMT 2021)
(GPL source distribution)
Java Runtime: OpenJDK Runtime Environment
JVM: OpenJDK 64-Bit Server VM
Default Encoding: UTF-8
Language: en
Country: GB
--></g></svg>