<?xml version="1.0" encoding="UTF-8" standalone="no"?><svg xmlns="http://www.w3.org/2000/svg" xmlns:xlink="http://www.w3.org/1999/xlink" contentScriptType="application/ecmascript" contentStyleType="text/css" height="81px" preserveAspectRatio="none" style="width:154px;height:81px;" version="1.1" viewBox="0 0 154 81" width="154px" zoomAndPan="magnify"><defs><filter height="300%" id="fjeszr2lq17d1" width="300%" x="-1" y="-1"><feGaussianBlur result="blurOut" stdDeviation="2.0"/><feColorMatrix in="blurOut" result="blurOut2" type="matrix" values="0 0 0 0 0 0 0 0 0 0 0 0 0 0 0 0 0 0 .4 0"/><feOffset dx="4.0" dy="4.0" in="blurOut2" result="blurOut3"/><feBlend in="SourceGraphic" in2="blurOut3" mode="normal"/></filter></defs><g><!--MD5=[3f29c51b147a9dd62a252a3d26b77dbf]
class IntroduceField--><rect codeLine="1" fill="#FEFECE" filter="url(#fjeszr2lq17d1)" height="60.9551" id="IntroduceField" style="stroke:#A80036;stroke-width:1.5;" width="133" x="7" y="7"/><ellipse cx="31" cy="23" fill="#ADD1B2" rx="11" ry="11" style="stroke:#A80036;stroke-width:1.0;"/><path d="M33.4731,29.1431 Q32.8921,29.4419 32.2529,29.5913 Q31.6138,29.7407 30.9082,29.7407 Q28.4014,29.7407 27.0815,28.0889 Q25.7617,26.437 25.7617,23.3159 Q25.7617,20.1865 27.0815,18.5347 Q28.4014,16.8828 30.9082,16.8828 Q31.6138,16.8828 32.2612,17.0322 Q32.9087,17.1816 33.4731,17.4805 L33.4731,20.2031 Q32.8423,19.6221 32.2488,19.3523 Q31.6553,19.0825 31.0244,19.0825 Q29.6797,19.0825 28.9949,20.1492 Q28.3101,21.2158 28.3101,23.3159 Q28.3101,25.4077 28.9949,26.4744 Q29.6797,27.541 31.0244,27.541 Q31.6553,27.541 32.2488,27.2712 Q32.8423,27.0015 33.4731,26.4204 Z " fill="#000000"/><text fill="#000000" font-family="sans-serif" font-size="12" lengthAdjust="spacing" textLength="81" x="47" y="27.5352">IntroduceField</text><line style="stroke:#A80036;stroke-width:1.5;" x1="8" x2="139" y1="39" y2="39"/><line style="stroke:#A80036;stroke-width:1.5;" x1="8" x2="139" y1="47" y2="47"/><ellipse cx="18" cy="58" fill="#84BE84" rx="3" ry="3" style="stroke:#038048;stroke-width:1.0;"/><text fill="#000000" font-family="sans-serif" font-size="11" lengthAdjust="spacing" textLength="107" x="27" y="61.6348">LongMethod() : void</text><!--MD5=[c4289b52bf5d2a3e80bf665f421d5ec3]
@startuml
class IntroduceField {
    + LongMethod() : void
}
@enduml

PlantUML version 1.2021.2(Sun Mar 07 11:10:27 GMT 2021)
(GPL source distribution)
Java Runtime: OpenJDK Runtime Environment
JVM: OpenJDK 64-Bit Server VM
Default Encoding: UTF-8
Language: en
Country: GB
--></g></svg>