<?xml version="1.0" encoding="UTF-8" standalone="no"?><svg xmlns="http://www.w3.org/2000/svg" xmlns:xlink="http://www.w3.org/1999/xlink" contentScriptType="application/ecmascript" contentStyleType="text/css" height="232px" preserveAspectRatio="none" style="width:167px;height:232px;" version="1.1" viewBox="0 0 167 232" width="167px" zoomAndPan="magnify"><defs><filter height="300%" id="fjvi53jvhi5zu" width="300%" x="-1" y="-1"><feGaussianBlur result="blurOut" stdDeviation="2.0"/><feColorMatrix in="blurOut" result="blurOut2" type="matrix" values="0 0 0 0 0 0 0 0 0 0 0 0 0 0 0 0 0 0 .4 0"/><feOffset dx="4.0" dy="4.0" in="blurOut2" result="blurOut3"/><feBlend in="SourceGraphic" in2="blurOut3" mode="normal"/></filter></defs><g><!--MD5=[ec1107c6cdc2d76ae25ae8293f75c9b8]
class IExtractInterfaceAfter--><rect codeLine="1" fill="#FEFECE" filter="url(#fjvi53jvhi5zu)" height="75.6719" id="IExtractInterfaceAfter" style="stroke:#A80036;stroke-width:1.5;" width="146" x="7" y="7"/><ellipse cx="22" cy="23" fill="#B4A7E5" rx="11" ry="11" style="stroke:#A80036;stroke-width:1.0;"/><path d="M22.9531,19.6406 L22.9531,26.2969 L24.6719,26.2969 Q25.2813,26.2969 25.5469,26.5313 Q25.8125,26.7656 25.8125,27.1563 Q25.8125,27.5313 25.5469,27.7656 Q25.2813,28 24.6719,28 L19.5313,28 Q18.9219,28 18.6563,27.7656 Q18.3906,27.5313 18.3906,27.1406 Q18.3906,26.7656 18.6563,26.5313 Q18.9219,26.2969 19.5313,26.2969 L21.25,26.2969 L21.25,19.6406 L19.5313,19.6406 Q18.9219,19.6406 18.6563,19.4063 Q18.3906,19.1719 18.3906,18.7813 Q18.3906,18.4063 18.6563,18.1719 Q18.9219,17.9375 19.5313,17.9375 L24.6719,17.9375 Q25.2813,17.9375 25.5469,18.1719 Q25.8125,18.4063 25.8125,18.7813 Q25.8125,19.1719 25.5469,19.4063 Q25.2813,19.6406 24.6719,19.6406 L22.9531,19.6406 Z " fill="#000000"/><text fill="#000000" font-family="sans-serif" font-size="12" font-style="italic" lengthAdjust="spacing" textLength="114" x="36" y="27.9102">IExtractInterfaceAfter</text><line style="stroke:#A80036;stroke-width:1.5;" x1="8" x2="152" y1="39" y2="39"/><line style="stroke:#A80036;stroke-width:1.5;" x1="8" x2="152" y1="47" y2="47"/><text fill="#000000" font-family="sans-serif" font-size="11" lengthAdjust="spacing" textLength="69" x="13" y="62.4189">method1() : int</text><text fill="#000000" font-family="sans-serif" font-size="11" lengthAdjust="spacing" textLength="69" x="13" y="76.2549">method2() : int</text><!--MD5=[2acff349abd07c5da3476110c6a4ae79]
class ExtractInterface--><rect codeLine="5" fill="#FEFECE" filter="url(#fjvi53jvhi5zu)" height="75.6719" id="ExtractInterface" style="stroke:#A80036;stroke-width:1.5;" width="115" x="22.5" y="143"/><ellipse cx="37.5" cy="159" fill="#ADD1B2" rx="11" ry="11" style="stroke:#A80036;stroke-width:1.0;"/><path d="M40.2656,154.875 Q40.4219,154.6563 40.6094,154.5469 Q40.7969,154.4375 41.0156,154.4375 Q41.3906,154.4375 41.625,154.7031 Q41.8594,154.9531 41.8594,155.5625 L41.8594,157.0156 Q41.8594,157.625 41.625,157.8906 Q41.3906,158.1563 41.0156,158.1563 Q40.6719,158.1563 40.4688,157.9531 Q40.2656,157.7656 40.1563,157.25 Q40.1094,156.8906 39.9219,156.7031 Q39.5938,156.3281 38.9844,156.1094 Q38.375,155.8906 37.75,155.8906 Q36.9844,155.8906 36.3438,156.2188 Q35.7188,156.5469 35.2188,157.2969 Q34.7344,158.0469 34.7344,159.0781 L34.7344,160.1719 Q34.7344,161.4063 35.625,162.2344 Q36.5156,163.0469 38.1094,163.0469 Q39.0469,163.0469 39.7031,162.7969 Q40.0938,162.6406 40.5156,162.2031 Q40.7813,161.9375 40.9219,161.8594 Q41.0781,161.7813 41.2813,161.7813 Q41.6094,161.7813 41.8594,162.0469 Q42.125,162.2969 42.125,162.6406 Q42.125,162.9844 41.7813,163.3906 Q41.2813,163.9688 40.4844,164.2969 Q39.4063,164.75 38.1094,164.75 Q36.5938,164.75 35.3906,164.125 Q34.4063,163.625 33.7188,162.5625 Q33.0313,161.4844 33.0313,160.2031 L33.0313,159.0469 Q33.0313,157.7188 33.6406,156.5781 Q34.2656,155.4219 35.3594,154.8125 Q36.4531,154.1875 37.6875,154.1875 Q38.4219,154.1875 39.0625,154.3594 Q39.7188,154.5156 40.2656,154.875 Z " fill="#000000"/><text fill="#000000" font-family="sans-serif" font-size="12" lengthAdjust="spacing" textLength="83" x="51.5" y="163.9102">ExtractInterface</text><line style="stroke:#A80036;stroke-width:1.5;" x1="23.5" x2="136.5" y1="175" y2="175"/><line style="stroke:#A80036;stroke-width:1.5;" x1="23.5" x2="136.5" y1="183" y2="183"/><ellipse cx="33.5" cy="194" fill="#84BE84" rx="3" ry="3" style="stroke:#038048;stroke-width:1.0;"/><text fill="#000000" font-family="sans-serif" font-size="11" lengthAdjust="spacing" textLength="69" x="42.5" y="198.4189">method1() : int</text><ellipse cx="33.5" cy="207.8359" fill="#84BE84" rx="3" ry="3" style="stroke:#038048;stroke-width:1.0;"/><text fill="#000000" font-family="sans-serif" font-size="11" lengthAdjust="spacing" textLength="69" x="42.5" y="212.2549">method2() : int</text><!--MD5=[3382f672fe47186ceabd61bfb981e826]
reverse link IExtractInterfaceAfter to ExtractInterface--><path codeLine="9" d="M80,103.54 C80,116.86 80,130.69 80,142.87 " fill="none" id="IExtractInterfaceAfter-backto-ExtractInterface" style="stroke:#A80036;stroke-width:1.0;"/><polygon fill="none" points="73,103.33,80,83.33,87,103.33,73,103.33" style="stroke:#A80036;stroke-width:1.0;"/><!--MD5=[9467b8feaf4c9abc70af299603722ba6]
@startuml
interface IExtractInterfaceAfter {
    method1() : int
    method2() : int
}
class ExtractInterface {
    + method1() : int
    + method2() : int
}
IExtractInterfaceAfter <|- - ExtractInterface
@enduml

PlantUML version 1.2021.2(Sun Mar 07 11:10:27 GMT 2021)
(GPL source distribution)
Java Runtime: OpenJDK Runtime Environment
JVM: OpenJDK 64-Bit Server VM
Default Encoding: UTF-8
Language: en
Country: GB
--></g></svg>