<?xml version="1.0" encoding="UTF-8" standalone="no"?><svg xmlns="http://www.w3.org/2000/svg" xmlns:xlink="http://www.w3.org/1999/xlink" contentScriptType="application/ecmascript" contentStyleType="text/css" height="124px" preserveAspectRatio="none" style="width:143px;height:124px;" version="1.1" viewBox="0 0 143 124" width="143px" zoomAndPan="magnify"><defs><filter height="300%" id="f1gqxsgv7dzeb7" width="300%" x="-1" y="-1"><feGaussianBlur result="blurOut" stdDeviation="2.0"/><feColorMatrix in="blurOut" result="blurOut2" type="matrix" values="0 0 0 0 0 0 0 0 0 0 0 0 0 0 0 0 0 0 .4 0"/><feOffset dx="4.0" dy="4.0" in="blurOut2" result="blurOut3"/><feBlend in="SourceGraphic" in2="blurOut3" mode="normal"/></filter></defs><g><!--MD5=[45bd72ab9e35b90dbc733a2d0b3922db]
class ExtractField--><rect codeLine="1" fill="#FEFECE" filter="url(#f1gqxsgv7dzeb7)" height="103.3438" id="ExtractField" style="stroke:#A80036;stroke-width:1.5;" width="122" x="7" y="7"/><ellipse cx="34.15" cy="23" fill="#ADD1B2" rx="11" ry="11" style="stroke:#A80036;stroke-width:1.0;"/><path d="M36.9156,18.875 Q37.0719,18.6563 37.2594,18.5469 Q37.4469,18.4375 37.6656,18.4375 Q38.0406,18.4375 38.275,18.7031 Q38.5094,18.9531 38.5094,19.5625 L38.5094,21.0156 Q38.5094,21.625 38.275,21.8906 Q38.0406,22.1563 37.6656,22.1563 Q37.3219,22.1563 37.1188,21.9531 Q36.9156,21.7656 36.8063,21.25 Q36.7594,20.8906 36.5719,20.7031 Q36.2438,20.3281 35.6344,20.1094 Q35.025,19.8906 34.4,19.8906 Q33.6344,19.8906 32.9938,20.2188 Q32.3688,20.5469 31.8688,21.2969 Q31.3844,22.0469 31.3844,23.0781 L31.3844,24.1719 Q31.3844,25.4063 32.275,26.2344 Q33.1656,27.0469 34.7594,27.0469 Q35.6969,27.0469 36.3531,26.7969 Q36.7438,26.6406 37.1656,26.2031 Q37.4313,25.9375 37.5719,25.8594 Q37.7281,25.7813 37.9313,25.7813 Q38.2594,25.7813 38.5094,26.0469 Q38.775,26.2969 38.775,26.6406 Q38.775,26.9844 38.4313,27.3906 Q37.9313,27.9688 37.1344,28.2969 Q36.0563,28.75 34.7594,28.75 Q33.2438,28.75 32.0406,28.125 Q31.0563,27.625 30.3688,26.5625 Q29.6813,25.4844 29.6813,24.2031 L29.6813,23.0469 Q29.6813,21.7188 30.2906,20.5781 Q30.9156,19.4219 32.0094,18.8125 Q33.1031,18.1875 34.3375,18.1875 Q35.0719,18.1875 35.7125,18.3594 Q36.3688,18.5156 36.9156,18.875 Z " fill="#000000"/><text fill="#000000" font-family="sans-serif" font-size="12" lengthAdjust="spacing" textLength="63" x="50.85" y="27.9102">ExtractField</text><line style="stroke:#A80036;stroke-width:1.5;" x1="8" x2="128" y1="39" y2="39"/><rect fill="none" height="6" style="stroke:#C82930;stroke-width:1.0;" width="6" x="15" y="47"/><text fill="#000000" font-family="sans-serif" font-size="11" lengthAdjust="spacing" textLength="55" x="27" y="54.4189">_thing1 : int</text><rect fill="none" height="6" style="stroke:#C82930;stroke-width:1.0;" width="6" x="15" y="60.8359"/><text fill="#000000" font-family="sans-serif" font-size="11" lengthAdjust="spacing" textLength="55" x="27" y="68.2549">_thing2 : int</text><rect fill="none" height="6" style="stroke:#C82930;stroke-width:1.0;" width="6" x="15" y="74.6719"/><text fill="#000000" font-family="sans-serif" font-size="11" lengthAdjust="spacing" textLength="55" x="27" y="82.0908">_thing3 : int</text><line style="stroke:#A80036;stroke-width:1.5;" x1="8" x2="128" y1="88.5078" y2="88.5078"/><ellipse cx="18" cy="99.5078" fill="#84BE84" rx="3" ry="3" style="stroke:#038048;stroke-width:1.0;"/><text fill="#000000" font-family="sans-serif" font-size="11" lengthAdjust="spacing" textLength="96" x="27" y="103.9268">LongMethod() : void</text><!--MD5=[b067d9876d076ed827579dbfc7680f24]
@startuml
class ExtractField {
    - _thing1 : int
    - _thing2 : int
    - _thing3 : int
    + LongMethod() : void
}
@enduml

PlantUML version 1.2021.2(Sun Mar 07 11:10:27 GMT 2021)
(GPL source distribution)
Java Runtime: OpenJDK Runtime Environment
JVM: OpenJDK 64-Bit Server VM
Default Encoding: UTF-8
Language: en
Country: GB
--></g></svg>