<?xml version="1.0" encoding="UTF-8" standalone="no"?><svg xmlns="http://www.w3.org/2000/svg" xmlns:xlink="http://www.w3.org/1999/xlink" contentScriptType="application/ecmascript" contentStyleType="text/css" height="107px" preserveAspectRatio="none" style="width:226px;height:107px;" version="1.1" viewBox="0 0 226 107" width="226px" zoomAndPan="magnify"><defs><filter height="300%" id="f12oxfc3zxp3mm" width="300%" x="-1" y="-1"><feGaussianBlur result="blurOut" stdDeviation="2.0"/><feColorMatrix in="blurOut" result="blurOut2" type="matrix" values="0 0 0 0 0 0 0 0 0 0 0 0 0 0 0 0 0 0 .4 0"/><feOffset dx="4.0" dy="4.0" in="blurOut2" result="blurOut3"/><feBlend in="SourceGraphic" in2="blurOut3" mode="normal"/></filter></defs><g><!--MD5=[2e44aa2a9833f63ecd818225731097c6]
class EncapsulateField--><rect codeLine="1" fill="#FEFECE" filter="url(#f12oxfc3zxp3mm)" height="86.8652" id="EncapsulateField" style="stroke:#A80036;stroke-width:1.5;" width="205" x="7" y="7"/><ellipse cx="57.25" cy="23" fill="#ADD1B2" rx="11" ry="11" style="stroke:#A80036;stroke-width:1.0;"/><path d="M59.7231,29.1431 Q59.1421,29.4419 58.5029,29.5913 Q57.8638,29.7407 57.1582,29.7407 Q54.6514,29.7407 53.3315,28.0889 Q52.0117,26.437 52.0117,23.3159 Q52.0117,20.1865 53.3315,18.5347 Q54.6514,16.8828 57.1582,16.8828 Q57.8638,16.8828 58.5112,17.0322 Q59.1587,17.1816 59.7231,17.4805 L59.7231,20.2031 Q59.0923,19.6221 58.4988,19.3523 Q57.9053,19.0825 57.2744,19.0825 Q55.9297,19.0825 55.2449,20.1492 Q54.5601,21.2158 54.5601,23.3159 Q54.5601,25.4077 55.2449,26.4744 Q55.9297,27.541 57.2744,27.541 Q57.9053,27.541 58.4988,27.2712 Q59.0923,27.0015 59.7231,26.4204 Z " fill="#000000"/><text fill="#000000" font-family="sans-serif" font-size="12" lengthAdjust="spacing" textLength="96" x="77.75" y="27.5352">EncapsulateField</text><line style="stroke:#A80036;stroke-width:1.5;" x1="8" x2="211" y1="39" y2="39"/><ellipse cx="18" cy="50" rx="3" ry="3" style="stroke:#038048;stroke-width:1.0;fill:none;"/><text fill="#000000" font-family="sans-serif" font-size="11" lengthAdjust="spacing" textLength="179" x="27" y="53.6348">Thing1AsAutoProperty : int «get»</text><ellipse cx="18" cy="62.9551" rx="3" ry="3" style="stroke:#038048;stroke-width:1.0;fill:none;"/><text fill="#000000" font-family="sans-serif" font-size="11" lengthAdjust="spacing" textLength="124" x="27" y="66.5898">Thing2 : int «get» «set»</text><rect fill="none" height="6" style="stroke:#C82930;stroke-width:1.0;" width="6" x="15" y="72.9102"/><text fill="#000000" font-family="sans-serif" font-size="11" lengthAdjust="spacing" textLength="64" x="27" y="79.5449">_thing2 : int</text><line style="stroke:#A80036;stroke-width:1.5;" x1="8" x2="211" y1="85.8652" y2="85.8652"/><!--MD5=[1c9983144a4de9ffff630f0bbce33ec8]
@startuml
class EncapsulateField {
    + Thing1AsAutoProperty : int <<get>>
    + Thing2 : int <<get>> <<set>>
    - _thing2 : int
}
@enduml

PlantUML version 1.2021.2(Sun Mar 07 11:10:27 GMT 2021)
(GPL source distribution)
Java Runtime: OpenJDK Runtime Environment
JVM: OpenJDK 64-Bit Server VM
Default Encoding: UTF-8
Language: en
Country: GB
--></g></svg>