<?xml version="1.0" encoding="UTF-8" standalone="no"?><svg xmlns="http://www.w3.org/2000/svg" xmlns:xlink="http://www.w3.org/1999/xlink" contentScriptType="application/ecmascript" contentStyleType="text/css" height="120px" preserveAspectRatio="none" style="width:177px;height:120px;" version="1.1" viewBox="0 0 177 120" width="177px" zoomAndPan="magnify"><defs><filter height="300%" id="f1w88r3t8et649" width="300%" x="-1" y="-1"><feGaussianBlur result="blurOut" stdDeviation="2.0"/><feColorMatrix in="blurOut" result="blurOut2" type="matrix" values="0 0 0 0 0 0 0 0 0 0 0 0 0 0 0 0 0 0 .4 0"/><feOffset dx="4.0" dy="4.0" in="blurOut2" result="blurOut3"/><feBlend in="SourceGraphic" in2="blurOut3" mode="normal"/></filter></defs><g><!--MD5=[7d630bb81c62625be4579eb47c4d0a54]
class ExtractClass--><rect codeLine="1" fill="#FEFECE" filter="url(#f1w88r3t8et649)" height="99.8203" id="ExtractClass" style="stroke:#A80036;stroke-width:1.5;" width="156" x="7" y="7"/><ellipse cx="46.3" cy="23" fill="#ADD1B2" rx="11" ry="11" style="stroke:#A80036;stroke-width:1.0;"/><path d="M48.7731,29.1431 Q48.1921,29.4419 47.5529,29.5913 Q46.9138,29.7407 46.2082,29.7407 Q43.7014,29.7407 42.3815,28.0889 Q41.0617,26.437 41.0617,23.3159 Q41.0617,20.1865 42.3815,18.5347 Q43.7014,16.8828 46.2082,16.8828 Q46.9138,16.8828 47.5612,17.0322 Q48.2087,17.1816 48.7731,17.4805 L48.7731,20.2031 Q48.1423,19.6221 47.5488,19.3523 Q46.9553,19.0825 46.3244,19.0825 Q44.9797,19.0825 44.2949,20.1492 Q43.6101,21.2158 43.6101,23.3159 Q43.6101,25.4077 44.2949,26.4744 Q44.9797,27.541 46.3244,27.541 Q46.9553,27.541 47.5488,27.2712 Q48.1423,27.0015 48.7731,26.4204 Z " fill="#000000"/><text fill="#000000" font-family="sans-serif" font-size="12" lengthAdjust="spacing" textLength="70" x="65.7" y="27.5352">ExtractClass</text><line style="stroke:#A80036;stroke-width:1.5;" x1="8" x2="162" y1="39" y2="39"/><rect fill="none" height="6" style="stroke:#C82930;stroke-width:1.0;" width="6" x="15" y="47"/><text fill="#000000" font-family="sans-serif" font-size="11" lengthAdjust="spacing" textLength="79" x="27" y="53.6348">_concept1 : int</text><rect fill="none" height="6" style="stroke:#C82930;stroke-width:1.0;" width="6" x="15" y="59.9551"/><text fill="#000000" font-family="sans-serif" font-size="11" lengthAdjust="spacing" textLength="79" x="27" y="66.5898">_concept2 : int</text><line style="stroke:#A80036;stroke-width:1.5;" x1="8" x2="162" y1="72.9102" y2="72.9102"/><ellipse cx="18" cy="83.9102" fill="#84BE84" rx="3" ry="3" style="stroke:#038048;stroke-width:1.0;"/><text fill="#000000" font-family="sans-serif" font-size="11" lengthAdjust="spacing" textLength="130" x="27" y="87.5449">Concept1Function() : int</text><ellipse cx="18" cy="96.8652" fill="#84BE84" rx="3" ry="3" style="stroke:#038048;stroke-width:1.0;"/><text fill="#000000" font-family="sans-serif" font-size="11" lengthAdjust="spacing" textLength="130" x="27" y="100.5">Concept2Function() : int</text><!--MD5=[17defe858d892eef5dc85ccc9510745e]
@startuml
class ExtractClass {
    - _concept1 : int
    - _concept2 : int
    + Concept1Function() : int
    + Concept2Function() : int
}
@enduml

PlantUML version 1.2021.2(Sun Mar 07 11:10:27 GMT 2021)
(GPL source distribution)
Java Runtime: OpenJDK Runtime Environment
JVM: OpenJDK 64-Bit Server VM
Default Encoding: UTF-8
Language: en
Country: GB
--></g></svg>