<?xml version="1.0" encoding="UTF-8" standalone="no"?><svg xmlns="http://www.w3.org/2000/svg" xmlns:xlink="http://www.w3.org/1999/xlink" contentScriptType="application/ecmascript" contentStyleType="text/css" height="124px" preserveAspectRatio="none" style="width:162px;height:124px;" version="1.1" viewBox="0 0 162 124" width="162px" zoomAndPan="magnify"><defs><filter height="300%" id="f1w88r3t8et649" width="300%" x="-1" y="-1"><feGaussianBlur result="blurOut" stdDeviation="2.0"/><feColorMatrix in="blurOut" result="blurOut2" type="matrix" values="0 0 0 0 0 0 0 0 0 0 0 0 0 0 0 0 0 0 .4 0"/><feOffset dx="4.0" dy="4.0" in="blurOut2" result="blurOut3"/><feBlend in="SourceGraphic" in2="blurOut3" mode="normal"/></filter></defs><g><!--MD5=[7d630bb81c62625be4579eb47c4d0a54]
class ExtractClass--><rect codeLine="1" fill="#FEFECE" filter="url(#f1w88r3t8et649)" height="103.3438" id="ExtractClass" style="stroke:#A80036;stroke-width:1.5;" width="141" x="7" y="7"/><ellipse cx="40" cy="23" fill="#ADD1B2" rx="11" ry="11" style="stroke:#A80036;stroke-width:1.0;"/><path d="M42.7656,18.875 Q42.9219,18.6563 43.1094,18.5469 Q43.2969,18.4375 43.5156,18.4375 Q43.8906,18.4375 44.125,18.7031 Q44.3594,18.9531 44.3594,19.5625 L44.3594,21.0156 Q44.3594,21.625 44.125,21.8906 Q43.8906,22.1563 43.5156,22.1563 Q43.1719,22.1563 42.9688,21.9531 Q42.7656,21.7656 42.6563,21.25 Q42.6094,20.8906 42.4219,20.7031 Q42.0938,20.3281 41.4844,20.1094 Q40.875,19.8906 40.25,19.8906 Q39.4844,19.8906 38.8438,20.2188 Q38.2188,20.5469 37.7188,21.2969 Q37.2344,22.0469 37.2344,23.0781 L37.2344,24.1719 Q37.2344,25.4063 38.125,26.2344 Q39.0156,27.0469 40.6094,27.0469 Q41.5469,27.0469 42.2031,26.7969 Q42.5938,26.6406 43.0156,26.2031 Q43.2813,25.9375 43.4219,25.8594 Q43.5781,25.7813 43.7813,25.7813 Q44.1094,25.7813 44.3594,26.0469 Q44.625,26.2969 44.625,26.6406 Q44.625,26.9844 44.2813,27.3906 Q43.7813,27.9688 42.9844,28.2969 Q41.9063,28.75 40.6094,28.75 Q39.0938,28.75 37.8906,28.125 Q36.9063,27.625 36.2188,26.5625 Q35.5313,25.4844 35.5313,24.2031 L35.5313,23.0469 Q35.5313,21.7188 36.1406,20.5781 Q36.7656,19.4219 37.8594,18.8125 Q38.9531,18.1875 40.1875,18.1875 Q40.9219,18.1875 41.5625,18.3594 Q42.2188,18.5156 42.7656,18.875 Z " fill="#000000"/><text fill="#000000" font-family="sans-serif" font-size="12" lengthAdjust="spacing" textLength="69" x="58" y="27.9102">ExtractClass</text><line style="stroke:#A80036;stroke-width:1.5;" x1="8" x2="147" y1="39" y2="39"/><rect fill="none" height="6" style="stroke:#C82930;stroke-width:1.0;" width="6" x="15" y="47"/><text fill="#000000" font-family="sans-serif" font-size="11" lengthAdjust="spacing" textLength="71" x="27" y="54.4189">_concept1 : int</text><rect fill="none" height="6" style="stroke:#C82930;stroke-width:1.0;" width="6" x="15" y="60.8359"/><text fill="#000000" font-family="sans-serif" font-size="11" lengthAdjust="spacing" textLength="71" x="27" y="68.2549">_concept2 : int</text><line style="stroke:#A80036;stroke-width:1.5;" x1="8" x2="147" y1="74.6719" y2="74.6719"/><ellipse cx="18" cy="85.6719" fill="#84BE84" rx="3" ry="3" style="stroke:#038048;stroke-width:1.0;"/><text fill="#000000" font-family="sans-serif" font-size="11" lengthAdjust="spacing" textLength="115" x="27" y="90.0908">Concept1Function() : int</text><ellipse cx="18" cy="99.5078" fill="#84BE84" rx="3" ry="3" style="stroke:#038048;stroke-width:1.0;"/><text fill="#000000" font-family="sans-serif" font-size="11" lengthAdjust="spacing" textLength="115" x="27" y="103.9268">Concept2Function() : int</text><!--MD5=[17defe858d892eef5dc85ccc9510745e]
@startuml
class ExtractClass {
    - _concept1 : int
    - _concept2 : int
    + Concept1Function() : int
    + Concept2Function() : int
}
@enduml

PlantUML version 1.2021.2(Sun Mar 07 11:10:27 GMT 2021)
(GPL source distribution)
Java Runtime: OpenJDK Runtime Environment
JVM: OpenJDK 64-Bit Server VM
Default Encoding: UTF-8
Language: en
Country: GB
--></g></svg>