<?xml version="1.0" encoding="UTF-8" standalone="no"?><svg xmlns="http://www.w3.org/2000/svg" xmlns:xlink="http://www.w3.org/1999/xlink" contentScriptType="application/ecmascript" contentStyleType="text/css" height="232px" preserveAspectRatio="none" style="width:167px;height:232px;" version="1.1" viewBox="0 0 167 232" width="167px" zoomAndPan="magnify"><defs><filter height="300%" id="f31qiy0vr3loq" width="300%" x="-1" y="-1"><feGaussianBlur result="blurOut" stdDeviation="2.0"/><feColorMatrix in="blurOut" result="blurOut2" type="matrix" values="0 0 0 0 0 0 0 0 0 0 0 0 0 0 0 0 0 0 .4 0"/><feOffset dx="4.0" dy="4.0" in="blurOut2" result="blurOut3"/><feBlend in="SourceGraphic" in2="blurOut3" mode="normal"/></filter></defs><g><!--MD5=[ec1107c6cdc2d76ae25ae8293f75c9b8]
class IExtractInterfaceAfter--><rect codeLine="1" fill="#FEFECE" filter="url(#f31qiy0vr3loq)" height="75.6719" id="IExtractInterfaceAfter" style="stroke:#A80036;stroke-width:1.5;" width="146" x="7" y="7"/><ellipse cx="22" cy="23" fill="#B4A7E5" rx="11" ry="11" style="stroke:#A80036;stroke-width:1.0;"/><path d="M22.9531,19.6406 L22.9531,26.2969 L24.6719,26.2969 Q25.2813,26.2969 25.5469,26.5313 Q25.8125,26.7656 25.8125,27.1563 Q25.8125,27.5313 25.5469,27.7656 Q25.2813,28 24.6719,28 L19.5313,28 Q18.9219,28 18.6563,27.7656 Q18.3906,27.5313 18.3906,27.1406 Q18.3906,26.7656 18.6563,26.5313 Q18.9219,26.2969 19.5313,26.2969 L21.25,26.2969 L21.25,19.6406 L19.5313,19.6406 Q18.9219,19.6406 18.6563,19.4063 Q18.3906,19.1719 18.3906,18.7813 Q18.3906,18.4063 18.6563,18.1719 Q18.9219,17.9375 19.5313,17.9375 L24.6719,17.9375 Q25.2813,17.9375 25.5469,18.1719 Q25.8125,18.4063 25.8125,18.7813 Q25.8125,19.1719 25.5469,19.4063 Q25.2813,19.6406 24.6719,19.6406 L22.9531,19.6406 Z " fill="#000000"/><text fill="#000000" font-family="sans-serif" font-size="12" font-style="italic" lengthAdjust="spacing" textLength="114" x="36" y="27.9102">IExtractInterfaceAfter</text><line style="stroke:#A80036;stroke-width:1.5;" x1="8" x2="152" y1="39" y2="39"/><line style="stroke:#A80036;stroke-width:1.5;" x1="8" x2="152" y1="47" y2="47"/><text fill="#000000" font-family="sans-serif" font-size="11" lengthAdjust="spacing" textLength="69" x="13" y="62.4189">method1() : int</text><text fill="#000000" font-family="sans-serif" font-size="11" lengthAdjust="spacing" textLength="69" x="13" y="76.2549">method2() : int</text><!--MD5=[594b5690aa080238c80616167c28ead7]
class ExtractInterfaceAfter--><rect codeLine="5" fill="#FEFECE" filter="url(#f31qiy0vr3loq)" height="75.6719" id="ExtractInterfaceAfter" style="stroke:#A80036;stroke-width:1.5;" width="139" x="10.5" y="143"/><ellipse cx="25.5" cy="159" fill="#ADD1B2" rx="11" ry="11" style="stroke:#A80036;stroke-width:1.0;"/><path d="M28.2656,154.875 Q28.4219,154.6563 28.6094,154.5469 Q28.7969,154.4375 29.0156,154.4375 Q29.3906,154.4375 29.625,154.7031 Q29.8594,154.9531 29.8594,155.5625 L29.8594,157.0156 Q29.8594,157.625 29.625,157.8906 Q29.3906,158.1563 29.0156,158.1563 Q28.6719,158.1563 28.4688,157.9531 Q28.2656,157.7656 28.1563,157.25 Q28.1094,156.8906 27.9219,156.7031 Q27.5938,156.3281 26.9844,156.1094 Q26.375,155.8906 25.75,155.8906 Q24.9844,155.8906 24.3438,156.2188 Q23.7188,156.5469 23.2188,157.2969 Q22.7344,158.0469 22.7344,159.0781 L22.7344,160.1719 Q22.7344,161.4063 23.625,162.2344 Q24.5156,163.0469 26.1094,163.0469 Q27.0469,163.0469 27.7031,162.7969 Q28.0938,162.6406 28.5156,162.2031 Q28.7813,161.9375 28.9219,161.8594 Q29.0781,161.7813 29.2813,161.7813 Q29.6094,161.7813 29.8594,162.0469 Q30.125,162.2969 30.125,162.6406 Q30.125,162.9844 29.7813,163.3906 Q29.2813,163.9688 28.4844,164.2969 Q27.4063,164.75 26.1094,164.75 Q24.5938,164.75 23.3906,164.125 Q22.4063,163.625 21.7188,162.5625 Q21.0313,161.4844 21.0313,160.2031 L21.0313,159.0469 Q21.0313,157.7188 21.6406,156.5781 Q22.2656,155.4219 23.3594,154.8125 Q24.4531,154.1875 25.6875,154.1875 Q26.4219,154.1875 27.0625,154.3594 Q27.7188,154.5156 28.2656,154.875 Z " fill="#000000"/><text fill="#000000" font-family="sans-serif" font-size="12" lengthAdjust="spacing" textLength="107" x="39.5" y="163.9102">ExtractInterfaceAfter</text><line style="stroke:#A80036;stroke-width:1.5;" x1="11.5" x2="148.5" y1="175" y2="175"/><line style="stroke:#A80036;stroke-width:1.5;" x1="11.5" x2="148.5" y1="183" y2="183"/><ellipse cx="21.5" cy="194" fill="#84BE84" rx="3" ry="3" style="stroke:#038048;stroke-width:1.0;"/><text fill="#000000" font-family="sans-serif" font-size="11" lengthAdjust="spacing" textLength="69" x="30.5" y="198.4189">method1() : int</text><ellipse cx="21.5" cy="207.8359" fill="#84BE84" rx="3" ry="3" style="stroke:#038048;stroke-width:1.0;"/><text fill="#000000" font-family="sans-serif" font-size="11" lengthAdjust="spacing" textLength="69" x="30.5" y="212.2549">method2() : int</text><!--MD5=[123d4098d22fe177b3f704443f98d225]
reverse link IExtractInterfaceAfter to ExtractInterfaceAfter--><path codeLine="9" d="M80,103.54 C80,116.86 80,130.69 80,142.87 " fill="none" id="IExtractInterfaceAfter-backto-ExtractInterfaceAfter" style="stroke:#A80036;stroke-width:1.0;"/><polygon fill="none" points="73,103.33,80,83.33,87,103.33,73,103.33" style="stroke:#A80036;stroke-width:1.0;"/><!--MD5=[dee06a3329310dd5dfa34ca0e7765f09]
@startuml
interface IExtractInterfaceAfter {
    method1() : int
    method2() : int
}
class ExtractInterfaceAfter {
    + method1() : int
    + method2() : int
}
IExtractInterfaceAfter <|- - ExtractInterfaceAfter
@enduml

PlantUML version 1.2021.2(Sun Mar 07 11:10:27 GMT 2021)
(GPL source distribution)
Java Runtime: OpenJDK Runtime Environment
JVM: OpenJDK 64-Bit Server VM
Default Encoding: UTF-8
Language: en
Country: GB
--></g></svg>