<?xml version="1.0" encoding="UTF-8" standalone="no"?><svg xmlns="http://www.w3.org/2000/svg" xmlns:xlink="http://www.w3.org/1999/xlink" contentScriptType="application/ecmascript" contentStyleType="text/css" height="124px" preserveAspectRatio="none" style="width:162px;height:124px;" version="1.1" viewBox="0 0 162 124" width="162px" zoomAndPan="magnify"><defs><filter height="300%" id="fn4ziuamhc5aw" width="300%" x="-1" y="-1"><feGaussianBlur result="blurOut" stdDeviation="2.0"/><feColorMatrix in="blurOut" result="blurOut2" type="matrix" values="0 0 0 0 0 0 0 0 0 0 0 0 0 0 0 0 0 0 .4 0"/><feOffset dx="4.0" dy="4.0" in="blurOut2" result="blurOut3"/><feBlend in="SourceGraphic" in2="blurOut3" mode="normal"/></filter></defs><g><!--MD5=[ef97f133f0fd4337de41ebf3b1cdb6ce]
class ExtractClassBefore--><rect codeLine="1" fill="#FEFECE" filter="url(#fn4ziuamhc5aw)" height="103.3438" id="ExtractClassBefore" style="stroke:#A80036;stroke-width:1.5;" width="141" x="7" y="7"/><ellipse cx="23.8" cy="23" fill="#ADD1B2" rx="11" ry="11" style="stroke:#A80036;stroke-width:1.0;"/><path d="M26.5656,18.875 Q26.7219,18.6563 26.9094,18.5469 Q27.0969,18.4375 27.3156,18.4375 Q27.6906,18.4375 27.925,18.7031 Q28.1594,18.9531 28.1594,19.5625 L28.1594,21.0156 Q28.1594,21.625 27.925,21.8906 Q27.6906,22.1563 27.3156,22.1563 Q26.9719,22.1563 26.7688,21.9531 Q26.5656,21.7656 26.4563,21.25 Q26.4094,20.8906 26.2219,20.7031 Q25.8938,20.3281 25.2844,20.1094 Q24.675,19.8906 24.05,19.8906 Q23.2844,19.8906 22.6438,20.2188 Q22.0188,20.5469 21.5188,21.2969 Q21.0344,22.0469 21.0344,23.0781 L21.0344,24.1719 Q21.0344,25.4063 21.925,26.2344 Q22.8156,27.0469 24.4094,27.0469 Q25.3469,27.0469 26.0031,26.7969 Q26.3938,26.6406 26.8156,26.2031 Q27.0813,25.9375 27.2219,25.8594 Q27.3781,25.7813 27.5813,25.7813 Q27.9094,25.7813 28.1594,26.0469 Q28.425,26.2969 28.425,26.6406 Q28.425,26.9844 28.0813,27.3906 Q27.5813,27.9688 26.7844,28.2969 Q25.7063,28.75 24.4094,28.75 Q22.8938,28.75 21.6906,28.125 Q20.7063,27.625 20.0188,26.5625 Q19.3313,25.4844 19.3313,24.2031 L19.3313,23.0469 Q19.3313,21.7188 19.9406,20.5781 Q20.5656,19.4219 21.6594,18.8125 Q22.7531,18.1875 23.9875,18.1875 Q24.7219,18.1875 25.3625,18.3594 Q26.0188,18.5156 26.5656,18.875 Z " fill="#000000"/><text fill="#000000" font-family="sans-serif" font-size="12" lengthAdjust="spacing" textLength="105" x="38.2" y="27.9102">ExtractClassBefore</text><line style="stroke:#A80036;stroke-width:1.5;" x1="8" x2="147" y1="39" y2="39"/><rect fill="none" height="6" style="stroke:#C82930;stroke-width:1.0;" width="6" x="15" y="47"/><text fill="#000000" font-family="sans-serif" font-size="11" lengthAdjust="spacing" textLength="71" x="27" y="54.4189">_concept1 : int</text><rect fill="none" height="6" style="stroke:#C82930;stroke-width:1.0;" width="6" x="15" y="60.8359"/><text fill="#000000" font-family="sans-serif" font-size="11" lengthAdjust="spacing" textLength="71" x="27" y="68.2549">_concept2 : int</text><line style="stroke:#A80036;stroke-width:1.5;" x1="8" x2="147" y1="74.6719" y2="74.6719"/><ellipse cx="18" cy="85.6719" fill="#84BE84" rx="3" ry="3" style="stroke:#038048;stroke-width:1.0;"/><text fill="#000000" font-family="sans-serif" font-size="11" lengthAdjust="spacing" textLength="115" x="27" y="90.0908">Concept1Function() : int</text><ellipse cx="18" cy="99.5078" fill="#84BE84" rx="3" ry="3" style="stroke:#038048;stroke-width:1.0;"/><text fill="#000000" font-family="sans-serif" font-size="11" lengthAdjust="spacing" textLength="115" x="27" y="103.9268">Concept2Function() : int</text><!--MD5=[54667933f120feac2c1e2bd31d070801]
@startuml
class ExtractClassBefore {
    - _concept1 : int
    - _concept2 : int
    + Concept1Function() : int
    + Concept2Function() : int
}
@enduml

PlantUML version 1.2021.2(Sun Mar 07 11:10:27 GMT 2021)
(GPL source distribution)
Java Runtime: OpenJDK Runtime Environment
JVM: OpenJDK 64-Bit Server VM
Default Encoding: UTF-8
Language: en
Country: GB
--></g></svg>