<?xml version="1.0" encoding="UTF-8" standalone="no"?><svg xmlns="http://www.w3.org/2000/svg" xmlns:xlink="http://www.w3.org/1999/xlink" contentScriptType="application/ecmascript" contentStyleType="text/css" height="205px" preserveAspectRatio="none" style="width:205px;height:205px;" version="1.1" viewBox="0 0 205 205" width="205px" zoomAndPan="magnify"><defs><filter height="300%" id="f16aunamrj3oa8" width="300%" x="-1" y="-1"><feGaussianBlur result="blurOut" stdDeviation="2.0"/><feColorMatrix in="blurOut" result="blurOut2" type="matrix" values="0 0 0 0 0 0 0 0 0 0 0 0 0 0 0 0 0 0 .4 0"/><feOffset dx="4.0" dy="4.0" in="blurOut2" result="blurOut3"/><feBlend in="SourceGraphic" in2="blurOut3" mode="normal"/></filter></defs><g><!--MD5=[7a198507a2868e18b95df7c14f81fea1]
class ExtractSuperclassAfterBase--><rect codeLine="1" fill="#FEFECE" filter="url(#f16aunamrj3oa8)" height="75.6719" id="ExtractSuperclassAfterBase" style="stroke:#A80036;stroke-width:1.5;" width="184" x="7" y="7"/><ellipse cx="22" cy="23" fill="#ADD1B2" rx="11" ry="11" style="stroke:#A80036;stroke-width:1.0;"/><path d="M24.7656,18.875 Q24.9219,18.6563 25.1094,18.5469 Q25.2969,18.4375 25.5156,18.4375 Q25.8906,18.4375 26.125,18.7031 Q26.3594,18.9531 26.3594,19.5625 L26.3594,21.0156 Q26.3594,21.625 26.125,21.8906 Q25.8906,22.1563 25.5156,22.1563 Q25.1719,22.1563 24.9688,21.9531 Q24.7656,21.7656 24.6563,21.25 Q24.6094,20.8906 24.4219,20.7031 Q24.0938,20.3281 23.4844,20.1094 Q22.875,19.8906 22.25,19.8906 Q21.4844,19.8906 20.8438,20.2188 Q20.2188,20.5469 19.7188,21.2969 Q19.2344,22.0469 19.2344,23.0781 L19.2344,24.1719 Q19.2344,25.4063 20.125,26.2344 Q21.0156,27.0469 22.6094,27.0469 Q23.5469,27.0469 24.2031,26.7969 Q24.5938,26.6406 25.0156,26.2031 Q25.2813,25.9375 25.4219,25.8594 Q25.5781,25.7813 25.7813,25.7813 Q26.1094,25.7813 26.3594,26.0469 Q26.625,26.2969 26.625,26.6406 Q26.625,26.9844 26.2813,27.3906 Q25.7813,27.9688 24.9844,28.2969 Q23.9063,28.75 22.6094,28.75 Q21.0938,28.75 19.8906,28.125 Q18.9063,27.625 18.2188,26.5625 Q17.5313,25.4844 17.5313,24.2031 L17.5313,23.0469 Q17.5313,21.7188 18.1406,20.5781 Q18.7656,19.4219 19.8594,18.8125 Q20.9531,18.1875 22.1875,18.1875 Q22.9219,18.1875 23.5625,18.3594 Q24.2188,18.5156 24.7656,18.875 Z " fill="#000000"/><text fill="#000000" font-family="sans-serif" font-size="12" lengthAdjust="spacing" textLength="152" x="36" y="27.9102">ExtractSuperclassAfterBase</text><line style="stroke:#A80036;stroke-width:1.5;" x1="8" x2="190" y1="39" y2="39"/><line style="stroke:#A80036;stroke-width:1.5;" x1="8" x2="190" y1="47" y2="47"/><rect fill="#F24D5C" height="6" style="stroke:#C82930;stroke-width:1.0;" width="6" x="15" y="55"/><text fill="#000000" font-family="sans-serif" font-size="11" lengthAdjust="spacing" textLength="69" x="27" y="62.4189">method1() : int</text><rect fill="#F24D5C" height="6" style="stroke:#C82930;stroke-width:1.0;" width="6" x="15" y="68.8359"/><text fill="#000000" font-family="sans-serif" font-size="11" lengthAdjust="spacing" textLength="69" x="27" y="76.2549">method2() : int</text><!--MD5=[c266b521705cc50e15f52290bd57de5b]
class ExtractSuperclassAfter--><rect codeLine="5" fill="#FEFECE" filter="url(#f16aunamrj3oa8)" height="48" id="ExtractSuperclassAfter" style="stroke:#A80036;stroke-width:1.5;" width="155" x="21.5" y="143"/><ellipse cx="36.5" cy="159" fill="#ADD1B2" rx="11" ry="11" style="stroke:#A80036;stroke-width:1.0;"/><path d="M39.2656,154.875 Q39.4219,154.6563 39.6094,154.5469 Q39.7969,154.4375 40.0156,154.4375 Q40.3906,154.4375 40.625,154.7031 Q40.8594,154.9531 40.8594,155.5625 L40.8594,157.0156 Q40.8594,157.625 40.625,157.8906 Q40.3906,158.1563 40.0156,158.1563 Q39.6719,158.1563 39.4688,157.9531 Q39.2656,157.7656 39.1563,157.25 Q39.1094,156.8906 38.9219,156.7031 Q38.5938,156.3281 37.9844,156.1094 Q37.375,155.8906 36.75,155.8906 Q35.9844,155.8906 35.3438,156.2188 Q34.7188,156.5469 34.2188,157.2969 Q33.7344,158.0469 33.7344,159.0781 L33.7344,160.1719 Q33.7344,161.4063 34.625,162.2344 Q35.5156,163.0469 37.1094,163.0469 Q38.0469,163.0469 38.7031,162.7969 Q39.0938,162.6406 39.5156,162.2031 Q39.7813,161.9375 39.9219,161.8594 Q40.0781,161.7813 40.2813,161.7813 Q40.6094,161.7813 40.8594,162.0469 Q41.125,162.2969 41.125,162.6406 Q41.125,162.9844 40.7813,163.3906 Q40.2813,163.9688 39.4844,164.2969 Q38.4063,164.75 37.1094,164.75 Q35.5938,164.75 34.3906,164.125 Q33.4063,163.625 32.7188,162.5625 Q32.0313,161.4844 32.0313,160.2031 L32.0313,159.0469 Q32.0313,157.7188 32.6406,156.5781 Q33.2656,155.4219 34.3594,154.8125 Q35.4531,154.1875 36.6875,154.1875 Q37.4219,154.1875 38.0625,154.3594 Q38.7188,154.5156 39.2656,154.875 Z " fill="#000000"/><text fill="#000000" font-family="sans-serif" font-size="12" lengthAdjust="spacing" textLength="123" x="50.5" y="163.9102">ExtractSuperclassAfter</text><line style="stroke:#A80036;stroke-width:1.5;" x1="22.5" x2="175.5" y1="175" y2="175"/><line style="stroke:#A80036;stroke-width:1.5;" x1="22.5" x2="175.5" y1="183" y2="183"/><!--MD5=[cd2a4810b72a05d3eeb3474174548a0d]
reverse link ExtractSuperclassAfterBase to ExtractSuperclassAfter--><path codeLine="7" d="M99,103.74 C99,117.54 99,131.49 99,142.68 " fill="none" id="ExtractSuperclassAfterBase-backto-ExtractSuperclassAfter" style="stroke:#A80036;stroke-width:1.0;"/><polygon fill="none" points="92,103.31,99,83.31,106,103.31,92,103.31" style="stroke:#A80036;stroke-width:1.0;"/><!--MD5=[3441eeacee21a7ae202e50cd3d26c4a5]
@startuml
class ExtractSuperclassAfterBase {
    - method1() : int
    - method2() : int
}
class ExtractSuperclassAfter {
}
ExtractSuperclassAfterBase <|- - ExtractSuperclassAfter
@enduml

PlantUML version 1.2021.2(Sun Mar 07 11:10:27 GMT 2021)
(GPL source distribution)
Java Runtime: OpenJDK Runtime Environment
JVM: OpenJDK 64-Bit Server VM
Default Encoding: UTF-8
Language: en
Country: GB
--></g></svg>