<?xml version="1.0" encoding="UTF-8" standalone="no"?><svg xmlns="http://www.w3.org/2000/svg" xmlns:xlink="http://www.w3.org/1999/xlink" contentScriptType="application/ecmascript" contentStyleType="text/css" height="205px" preserveAspectRatio="none" style="width:407px;height:205px;" version="1.1" viewBox="0 0 407 205" width="407px" zoomAndPan="magnify"><defs><filter height="300%" id="f1e6gkdoy5e10c" width="300%" x="-1" y="-1"><feGaussianBlur result="blurOut" stdDeviation="2.0"/><feColorMatrix in="blurOut" result="blurOut2" type="matrix" values="0 0 0 0 0 0 0 0 0 0 0 0 0 0 0 0 0 0 .4 0"/><feOffset dx="4.0" dy="4.0" in="blurOut2" result="blurOut3"/><feBlend in="SourceGraphic" in2="blurOut3" mode="normal"/></filter></defs><g><!--MD5=[b634e721f415916b9ab17586a284e91c]
class ExtractSuperclassBefore--><rect codeLine="1" fill="#FEFECE" filter="url(#f1e6gkdoy5e10c)" height="75.6719" id="ExtractSuperclassBefore" style="stroke:#A80036;stroke-width:1.5;" width="167" x="7" y="7"/><ellipse cx="22" cy="23" fill="#ADD1B2" rx="11" ry="11" style="stroke:#A80036;stroke-width:1.0;"/><path d="M24.7656,18.875 Q24.9219,18.6563 25.1094,18.5469 Q25.2969,18.4375 25.5156,18.4375 Q25.8906,18.4375 26.125,18.7031 Q26.3594,18.9531 26.3594,19.5625 L26.3594,21.0156 Q26.3594,21.625 26.125,21.8906 Q25.8906,22.1563 25.5156,22.1563 Q25.1719,22.1563 24.9688,21.9531 Q24.7656,21.7656 24.6563,21.25 Q24.6094,20.8906 24.4219,20.7031 Q24.0938,20.3281 23.4844,20.1094 Q22.875,19.8906 22.25,19.8906 Q21.4844,19.8906 20.8438,20.2188 Q20.2188,20.5469 19.7188,21.2969 Q19.2344,22.0469 19.2344,23.0781 L19.2344,24.1719 Q19.2344,25.4063 20.125,26.2344 Q21.0156,27.0469 22.6094,27.0469 Q23.5469,27.0469 24.2031,26.7969 Q24.5938,26.6406 25.0156,26.2031 Q25.2813,25.9375 25.4219,25.8594 Q25.5781,25.7813 25.7813,25.7813 Q26.1094,25.7813 26.3594,26.0469 Q26.625,26.2969 26.625,26.6406 Q26.625,26.9844 26.2813,27.3906 Q25.7813,27.9688 24.9844,28.2969 Q23.9063,28.75 22.6094,28.75 Q21.0938,28.75 19.8906,28.125 Q18.9063,27.625 18.2188,26.5625 Q17.5313,25.4844 17.5313,24.2031 L17.5313,23.0469 Q17.5313,21.7188 18.1406,20.5781 Q18.7656,19.4219 19.8594,18.8125 Q20.9531,18.1875 22.1875,18.1875 Q22.9219,18.1875 23.5625,18.3594 Q24.2188,18.5156 24.7656,18.875 Z " fill="#000000"/><text fill="#000000" font-family="sans-serif" font-size="12" lengthAdjust="spacing" textLength="135" x="36" y="27.9102">ExtractSuperclassBefore</text><line style="stroke:#A80036;stroke-width:1.5;" x1="8" x2="173" y1="39" y2="39"/><line style="stroke:#A80036;stroke-width:1.5;" x1="8" x2="173" y1="47" y2="47"/><text fill="#000000" font-family="sans-serif" font-size="11" lengthAdjust="spacing" textLength="69" x="13" y="62.4189">method1() : int</text><text fill="#000000" font-family="sans-serif" font-size="11" lengthAdjust="spacing" textLength="69" x="13" y="76.2549">method2() : int</text><!--MD5=[7a198507a2868e18b95df7c14f81fea1]
class ExtractSuperclassAfterBase--><rect codeLine="5" fill="#FEFECE" filter="url(#f1e6gkdoy5e10c)" height="75.6719" id="ExtractSuperclassAfterBase" style="stroke:#A80036;stroke-width:1.5;" width="184" x="209.5" y="7"/><ellipse cx="224.5" cy="23" fill="#ADD1B2" rx="11" ry="11" style="stroke:#A80036;stroke-width:1.0;"/><path d="M227.2656,18.875 Q227.4219,18.6563 227.6094,18.5469 Q227.7969,18.4375 228.0156,18.4375 Q228.3906,18.4375 228.625,18.7031 Q228.8594,18.9531 228.8594,19.5625 L228.8594,21.0156 Q228.8594,21.625 228.625,21.8906 Q228.3906,22.1563 228.0156,22.1563 Q227.6719,22.1563 227.4688,21.9531 Q227.2656,21.7656 227.1563,21.25 Q227.1094,20.8906 226.9219,20.7031 Q226.5938,20.3281 225.9844,20.1094 Q225.375,19.8906 224.75,19.8906 Q223.9844,19.8906 223.3438,20.2188 Q222.7188,20.5469 222.2188,21.2969 Q221.7344,22.0469 221.7344,23.0781 L221.7344,24.1719 Q221.7344,25.4063 222.625,26.2344 Q223.5156,27.0469 225.1094,27.0469 Q226.0469,27.0469 226.7031,26.7969 Q227.0938,26.6406 227.5156,26.2031 Q227.7813,25.9375 227.9219,25.8594 Q228.0781,25.7813 228.2813,25.7813 Q228.6094,25.7813 228.8594,26.0469 Q229.125,26.2969 229.125,26.6406 Q229.125,26.9844 228.7813,27.3906 Q228.2813,27.9688 227.4844,28.2969 Q226.4063,28.75 225.1094,28.75 Q223.5938,28.75 222.3906,28.125 Q221.4063,27.625 220.7188,26.5625 Q220.0313,25.4844 220.0313,24.2031 L220.0313,23.0469 Q220.0313,21.7188 220.6406,20.5781 Q221.2656,19.4219 222.3594,18.8125 Q223.4531,18.1875 224.6875,18.1875 Q225.4219,18.1875 226.0625,18.3594 Q226.7188,18.5156 227.2656,18.875 Z " fill="#000000"/><text fill="#000000" font-family="sans-serif" font-size="12" lengthAdjust="spacing" textLength="152" x="238.5" y="27.9102">ExtractSuperclassAfterBase</text><line style="stroke:#A80036;stroke-width:1.5;" x1="210.5" x2="392.5" y1="39" y2="39"/><line style="stroke:#A80036;stroke-width:1.5;" x1="210.5" x2="392.5" y1="47" y2="47"/><rect fill="#F24D5C" height="6" style="stroke:#C82930;stroke-width:1.0;" width="6" x="217.5" y="55"/><text fill="#000000" font-family="sans-serif" font-size="11" lengthAdjust="spacing" textLength="69" x="229.5" y="62.4189">method1() : int</text><rect fill="#F24D5C" height="6" style="stroke:#C82930;stroke-width:1.0;" width="6" x="217.5" y="68.8359"/><text fill="#000000" font-family="sans-serif" font-size="11" lengthAdjust="spacing" textLength="69" x="229.5" y="76.2549">method2() : int</text><!--MD5=[c266b521705cc50e15f52290bd57de5b]
class ExtractSuperclassAfter--><rect codeLine="9" fill="#FEFECE" filter="url(#f1e6gkdoy5e10c)" height="48" id="ExtractSuperclassAfter" style="stroke:#A80036;stroke-width:1.5;" width="155" x="224" y="143"/><ellipse cx="239" cy="159" fill="#ADD1B2" rx="11" ry="11" style="stroke:#A80036;stroke-width:1.0;"/><path d="M241.7656,154.875 Q241.9219,154.6563 242.1094,154.5469 Q242.2969,154.4375 242.5156,154.4375 Q242.8906,154.4375 243.125,154.7031 Q243.3594,154.9531 243.3594,155.5625 L243.3594,157.0156 Q243.3594,157.625 243.125,157.8906 Q242.8906,158.1563 242.5156,158.1563 Q242.1719,158.1563 241.9688,157.9531 Q241.7656,157.7656 241.6563,157.25 Q241.6094,156.8906 241.4219,156.7031 Q241.0938,156.3281 240.4844,156.1094 Q239.875,155.8906 239.25,155.8906 Q238.4844,155.8906 237.8438,156.2188 Q237.2188,156.5469 236.7188,157.2969 Q236.2344,158.0469 236.2344,159.0781 L236.2344,160.1719 Q236.2344,161.4063 237.125,162.2344 Q238.0156,163.0469 239.6094,163.0469 Q240.5469,163.0469 241.2031,162.7969 Q241.5938,162.6406 242.0156,162.2031 Q242.2813,161.9375 242.4219,161.8594 Q242.5781,161.7813 242.7813,161.7813 Q243.1094,161.7813 243.3594,162.0469 Q243.625,162.2969 243.625,162.6406 Q243.625,162.9844 243.2813,163.3906 Q242.7813,163.9688 241.9844,164.2969 Q240.9063,164.75 239.6094,164.75 Q238.0938,164.75 236.8906,164.125 Q235.9063,163.625 235.2188,162.5625 Q234.5313,161.4844 234.5313,160.2031 L234.5313,159.0469 Q234.5313,157.7188 235.1406,156.5781 Q235.7656,155.4219 236.8594,154.8125 Q237.9531,154.1875 239.1875,154.1875 Q239.9219,154.1875 240.5625,154.3594 Q241.2188,154.5156 241.7656,154.875 Z " fill="#000000"/><text fill="#000000" font-family="sans-serif" font-size="12" lengthAdjust="spacing" textLength="123" x="253" y="163.9102">ExtractSuperclassAfter</text><line style="stroke:#A80036;stroke-width:1.5;" x1="225" x2="378" y1="175" y2="175"/><line style="stroke:#A80036;stroke-width:1.5;" x1="225" x2="378" y1="183" y2="183"/><!--MD5=[cd2a4810b72a05d3eeb3474174548a0d]
reverse link ExtractSuperclassAfterBase to ExtractSuperclassAfter--><path codeLine="11" d="M301.5,103.74 C301.5,117.54 301.5,131.49 301.5,142.68 " fill="none" id="ExtractSuperclassAfterBase-backto-ExtractSuperclassAfter" style="stroke:#A80036;stroke-width:1.0;"/><polygon fill="none" points="294.5,103.31,301.5,83.31,308.5,103.31,294.5,103.31" style="stroke:#A80036;stroke-width:1.0;"/><!--MD5=[b6f830de5c5f50ae0d9f8be5ceaee2b4]
@startuml
class ExtractSuperclassBefore {
    method1() : int
    method2() : int
}
class ExtractSuperclassAfterBase {
    - method1() : int
    - method2() : int
}
class ExtractSuperclassAfter {
}
ExtractSuperclassAfterBase <|- - ExtractSuperclassAfter
@enduml

PlantUML version 1.2021.2(Sun Mar 07 11:10:27 GMT 2021)
(GPL source distribution)
Java Runtime: OpenJDK Runtime Environment
JVM: OpenJDK 64-Bit Server VM
Default Encoding: UTF-8
Language: en
Country: GB
--></g></svg>