<?xml version="1.0" encoding="UTF-8" standalone="no"?><svg xmlns="http://www.w3.org/2000/svg" xmlns:xlink="http://www.w3.org/1999/xlink" contentScriptType="application/ecmascript" contentStyleType="text/css" height="232px" preserveAspectRatio="none" style="width:353px;height:232px;" version="1.1" viewBox="0 0 353 232" width="353px" zoomAndPan="magnify"><defs><filter height="300%" id="f5e7m756t9th8" width="300%" x="-1" y="-1"><feGaussianBlur result="blurOut" stdDeviation="2.0"/><feColorMatrix in="blurOut" result="blurOut2" type="matrix" values="0 0 0 0 0 0 0 0 0 0 0 0 0 0 0 0 0 0 .4 0"/><feOffset dx="4.0" dy="4.0" in="blurOut2" result="blurOut3"/><feBlend in="SourceGraphic" in2="blurOut3" mode="normal"/></filter></defs><g><!--MD5=[59614d1c7601101e4273e7767160a052]
class ExtractInterfaceBefore--><rect codeLine="1" fill="#FEFECE" filter="url(#f5e7m756t9th8)" height="75.6719" id="ExtractInterfaceBefore" style="stroke:#A80036;stroke-width:1.5;" width="151" x="7" y="7"/><ellipse cx="22" cy="23" fill="#ADD1B2" rx="11" ry="11" style="stroke:#A80036;stroke-width:1.0;"/><path d="M24.7656,18.875 Q24.9219,18.6563 25.1094,18.5469 Q25.2969,18.4375 25.5156,18.4375 Q25.8906,18.4375 26.125,18.7031 Q26.3594,18.9531 26.3594,19.5625 L26.3594,21.0156 Q26.3594,21.625 26.125,21.8906 Q25.8906,22.1563 25.5156,22.1563 Q25.1719,22.1563 24.9688,21.9531 Q24.7656,21.7656 24.6563,21.25 Q24.6094,20.8906 24.4219,20.7031 Q24.0938,20.3281 23.4844,20.1094 Q22.875,19.8906 22.25,19.8906 Q21.4844,19.8906 20.8438,20.2188 Q20.2188,20.5469 19.7188,21.2969 Q19.2344,22.0469 19.2344,23.0781 L19.2344,24.1719 Q19.2344,25.4063 20.125,26.2344 Q21.0156,27.0469 22.6094,27.0469 Q23.5469,27.0469 24.2031,26.7969 Q24.5938,26.6406 25.0156,26.2031 Q25.2813,25.9375 25.4219,25.8594 Q25.5781,25.7813 25.7813,25.7813 Q26.1094,25.7813 26.3594,26.0469 Q26.625,26.2969 26.625,26.6406 Q26.625,26.9844 26.2813,27.3906 Q25.7813,27.9688 24.9844,28.2969 Q23.9063,28.75 22.6094,28.75 Q21.0938,28.75 19.8906,28.125 Q18.9063,27.625 18.2188,26.5625 Q17.5313,25.4844 17.5313,24.2031 L17.5313,23.0469 Q17.5313,21.7188 18.1406,20.5781 Q18.7656,19.4219 19.8594,18.8125 Q20.9531,18.1875 22.1875,18.1875 Q22.9219,18.1875 23.5625,18.3594 Q24.2188,18.5156 24.7656,18.875 Z " fill="#000000"/><text fill="#000000" font-family="sans-serif" font-size="12" lengthAdjust="spacing" textLength="119" x="36" y="27.9102">ExtractInterfaceBefore</text><line style="stroke:#A80036;stroke-width:1.5;" x1="8" x2="157" y1="39" y2="39"/><line style="stroke:#A80036;stroke-width:1.5;" x1="8" x2="157" y1="47" y2="47"/><text fill="#000000" font-family="sans-serif" font-size="11" lengthAdjust="spacing" textLength="69" x="13" y="62.4189">method1() : int</text><text fill="#000000" font-family="sans-serif" font-size="11" lengthAdjust="spacing" textLength="69" x="13" y="76.2549">method2() : int</text><!--MD5=[ec1107c6cdc2d76ae25ae8293f75c9b8]
class IExtractInterfaceAfter--><rect codeLine="5" fill="#FEFECE" filter="url(#f5e7m756t9th8)" height="75.6719" id="IExtractInterfaceAfter" style="stroke:#A80036;stroke-width:1.5;" width="146" x="193.5" y="7"/><ellipse cx="208.5" cy="23" fill="#B4A7E5" rx="11" ry="11" style="stroke:#A80036;stroke-width:1.0;"/><path d="M209.4531,19.6406 L209.4531,26.2969 L211.1719,26.2969 Q211.7813,26.2969 212.0469,26.5313 Q212.3125,26.7656 212.3125,27.1563 Q212.3125,27.5313 212.0469,27.7656 Q211.7813,28 211.1719,28 L206.0313,28 Q205.4219,28 205.1563,27.7656 Q204.8906,27.5313 204.8906,27.1406 Q204.8906,26.7656 205.1563,26.5313 Q205.4219,26.2969 206.0313,26.2969 L207.75,26.2969 L207.75,19.6406 L206.0313,19.6406 Q205.4219,19.6406 205.1563,19.4063 Q204.8906,19.1719 204.8906,18.7813 Q204.8906,18.4063 205.1563,18.1719 Q205.4219,17.9375 206.0313,17.9375 L211.1719,17.9375 Q211.7813,17.9375 212.0469,18.1719 Q212.3125,18.4063 212.3125,18.7813 Q212.3125,19.1719 212.0469,19.4063 Q211.7813,19.6406 211.1719,19.6406 L209.4531,19.6406 Z " fill="#000000"/><text fill="#000000" font-family="sans-serif" font-size="12" font-style="italic" lengthAdjust="spacing" textLength="114" x="222.5" y="27.9102">IExtractInterfaceAfter</text><line style="stroke:#A80036;stroke-width:1.5;" x1="194.5" x2="338.5" y1="39" y2="39"/><line style="stroke:#A80036;stroke-width:1.5;" x1="194.5" x2="338.5" y1="47" y2="47"/><text fill="#000000" font-family="sans-serif" font-size="11" lengthAdjust="spacing" textLength="69" x="199.5" y="62.4189">method1() : int</text><text fill="#000000" font-family="sans-serif" font-size="11" lengthAdjust="spacing" textLength="69" x="199.5" y="76.2549">method2() : int</text><!--MD5=[594b5690aa080238c80616167c28ead7]
class ExtractInterfaceAfter--><rect codeLine="9" fill="#FEFECE" filter="url(#f5e7m756t9th8)" height="75.6719" id="ExtractInterfaceAfter" style="stroke:#A80036;stroke-width:1.5;" width="139" x="197" y="143"/><ellipse cx="212" cy="159" fill="#ADD1B2" rx="11" ry="11" style="stroke:#A80036;stroke-width:1.0;"/><path d="M214.7656,154.875 Q214.9219,154.6563 215.1094,154.5469 Q215.2969,154.4375 215.5156,154.4375 Q215.8906,154.4375 216.125,154.7031 Q216.3594,154.9531 216.3594,155.5625 L216.3594,157.0156 Q216.3594,157.625 216.125,157.8906 Q215.8906,158.1563 215.5156,158.1563 Q215.1719,158.1563 214.9688,157.9531 Q214.7656,157.7656 214.6563,157.25 Q214.6094,156.8906 214.4219,156.7031 Q214.0938,156.3281 213.4844,156.1094 Q212.875,155.8906 212.25,155.8906 Q211.4844,155.8906 210.8438,156.2188 Q210.2188,156.5469 209.7188,157.2969 Q209.2344,158.0469 209.2344,159.0781 L209.2344,160.1719 Q209.2344,161.4063 210.125,162.2344 Q211.0156,163.0469 212.6094,163.0469 Q213.5469,163.0469 214.2031,162.7969 Q214.5938,162.6406 215.0156,162.2031 Q215.2813,161.9375 215.4219,161.8594 Q215.5781,161.7813 215.7813,161.7813 Q216.1094,161.7813 216.3594,162.0469 Q216.625,162.2969 216.625,162.6406 Q216.625,162.9844 216.2813,163.3906 Q215.7813,163.9688 214.9844,164.2969 Q213.9063,164.75 212.6094,164.75 Q211.0938,164.75 209.8906,164.125 Q208.9063,163.625 208.2188,162.5625 Q207.5313,161.4844 207.5313,160.2031 L207.5313,159.0469 Q207.5313,157.7188 208.1406,156.5781 Q208.7656,155.4219 209.8594,154.8125 Q210.9531,154.1875 212.1875,154.1875 Q212.9219,154.1875 213.5625,154.3594 Q214.2188,154.5156 214.7656,154.875 Z " fill="#000000"/><text fill="#000000" font-family="sans-serif" font-size="12" lengthAdjust="spacing" textLength="107" x="226" y="163.9102">ExtractInterfaceAfter</text><line style="stroke:#A80036;stroke-width:1.5;" x1="198" x2="335" y1="175" y2="175"/><line style="stroke:#A80036;stroke-width:1.5;" x1="198" x2="335" y1="183" y2="183"/><ellipse cx="208" cy="194" fill="#84BE84" rx="3" ry="3" style="stroke:#038048;stroke-width:1.0;"/><text fill="#000000" font-family="sans-serif" font-size="11" lengthAdjust="spacing" textLength="69" x="217" y="198.4189">method1() : int</text><ellipse cx="208" cy="207.8359" fill="#84BE84" rx="3" ry="3" style="stroke:#038048;stroke-width:1.0;"/><text fill="#000000" font-family="sans-serif" font-size="11" lengthAdjust="spacing" textLength="69" x="217" y="212.2549">method2() : int</text><!--MD5=[123d4098d22fe177b3f704443f98d225]
reverse link IExtractInterfaceAfter to ExtractInterfaceAfter--><path codeLine="13" d="M266.5,103.54 C266.5,116.86 266.5,130.69 266.5,142.87 " fill="none" id="IExtractInterfaceAfter-backto-ExtractInterfaceAfter" style="stroke:#A80036;stroke-width:1.0;"/><polygon fill="none" points="259.5,103.33,266.5,83.33,273.5,103.33,259.5,103.33" style="stroke:#A80036;stroke-width:1.0;"/><!--MD5=[744f72b8b35b5a30ab76a1ef89548676]
@startuml
class ExtractInterfaceBefore {
    method1() : int
    method2() : int
}
interface IExtractInterfaceAfter {
    method1() : int
    method2() : int
}
class ExtractInterfaceAfter {
    + method1() : int
    + method2() : int
}
IExtractInterfaceAfter <|- - ExtractInterfaceAfter
@enduml

PlantUML version 1.2021.2(Sun Mar 07 11:10:27 GMT 2021)
(GPL source distribution)
Java Runtime: OpenJDK Runtime Environment
JVM: OpenJDK 64-Bit Server VM
Default Encoding: UTF-8
Language: en
Country: GB
--></g></svg>